<?xml version="1.0" encoding="UTF-8"?>
<svg id="logo_iniziali" xmlns="http://www.w3.org/2000/svg" viewBox="0 0 1080 1080">
  <defs>
    <style>
      .cls-1 {
        fill: #fb6306;
      }

      .cls-2 {
        fill: #fffae3;
      }

      .cls-3 {
        fill: #0f1e57;
      }
    </style>
  </defs>
  <rect class="cls-3" x="0" y="0" width="1080" height="1080"/>
  <path class="cls-2" d="M868.76,266.78l3.08,31.84c3.56,36.75,31.71,66.34,68.24,71.74l16.24,2.4c1.37.2,1.37,2.18,0,2.38l-16.24,2.4c-36.53,5.39-64.68,34.98-68.24,71.74l-3.08,31.84c-.14,1.45-2.26,1.45-2.4,0l-3.08-31.84c-3.56-36.75-31.71-66.34-68.24-71.74l-16.24-2.4c-1.37-.2-1.37-2.18,0-2.38l16.24-2.4c36.53-5.39,64.68-34.98,68.24-71.74l3.08-31.84c.14-1.45,2.26-1.45,2.4,0Z"/>
  <g>
    <path class="cls-2" d="M469.94,686.17c1.07-1.16,1.87-2.4,2.49-3.83s.89-3.12.89-4.98c0-1.25-.18-2.4-.54-3.47-.44-1.07-.98-1.96-1.6-2.76-.62-.71-1.33-1.25-2.14-1.69-.8-.45-1.69-.62-2.58-.62-1.78,0-3.38.71-4.89,2.14-1.51,1.42-2.23,3.47-2.23,6.14,0,3.74-.8,6.41-2.31,8.01-1.51,1.69-3.29,2.49-5.25,2.49-2.22,0-4.01-.8-5.43-2.31-1.51-1.51-2.22-3.29-2.22-5.52s.62-4,1.87-5.7c1.25-1.6,2.94-2.94,5.07-4,2.05-1.07,4.45-1.87,7.21-2.4,2.76-.53,5.61-.8,8.54-.8s5.43.36,7.83,1.07c2.31.71,4.27,1.69,5.96,3.03,1.69,1.33,2.94,3.03,3.92,4.98.89,1.96,1.33,4.18,1.33,6.67,0,2.67-.53,5.07-1.69,7.21-1.16,2.22-2.58,4.18-4.45,5.87-1.87,1.78-4.01,3.38-6.41,4.81-2.4,1.51-4.9,2.85-7.48,4.09-1.96.98-4.01,1.78-6.23,2.58-2.22.8-4.36,1.78-6.23,2.85-1.87,1.07-3.47,2.31-4.72,3.83-1.34,1.51-1.96,3.38-1.96,5.7.45-.53,1.16-1.16,1.96-1.87s1.78-1.42,2.85-2.05,2.22-1.07,3.47-1.51c1.25-.44,2.49-.62,3.83-.62,2.67,0,4.98.36,7.03.98s3.92,1.33,5.7,2.14c1.69.8,3.38,1.6,5.07,2.23,1.69.71,3.47,1.07,5.34,1.07,1.69,0,3.03-.36,3.83-.98s1.16-1.42,1.16-2.23c0-.71-.36-1.33-1.07-1.96-.8-.62-1.87-.89-3.38-.89-.8,0-1.51-.18-2.31-.45-.8-.27-1.42-.62-2.05-1.07-.62-.44-1.16-1.07-1.51-1.69s-.54-1.25-.54-1.96c0-1.51.54-2.76,1.6-3.83,1.07-1.07,2.4-1.6,4-1.6,1.69,0,3.21.71,4.54,2.05,1.34,1.33,1.96,3.47,1.96,6.41,0,3.74-.36,6.76-.98,9.17s-1.51,4.36-2.58,5.7c-1.16,1.42-2.4,2.4-3.83,2.94-1.51.53-3.03.8-4.72.8-2.13,0-4.09-.27-5.87-.89-1.78-.53-3.56-1.16-5.25-1.96-1.69-.71-3.47-1.42-5.16-2.14-1.78-.71-3.74-1.16-5.79-1.42-.27-.09-.71-.09-1.25-.09-2.05,0-3.47.62-4.45,1.78-.98,1.25-1.87,2.58-2.58,4.09-.09.18-.18.27-.36.27-.27,0-.36-.09-.36-.36,0-2.94-.09-5.61-.18-8.19-.18-2.49-.18-4.9-.09-7.12.09-2.22.36-4.27.89-6.32.45-1.96,1.34-3.83,2.49-5.7,1.16-1.87,2.85-3.56,4.9-5.25,2.05-1.69,4.63-3.29,7.92-4.9,1.87-.98,3.65-1.87,5.16-2.85,1.51-.98,2.76-1.96,3.83-3.12Z"/>
    <path class="cls-2" d="M499.4,675.31c2.31-2.76,5.07-4.81,8.19-6.32,3.12-1.42,6.41-2.14,9.97-2.14s6.94.71,10.06,2.14c3.12,1.51,5.79,3.56,8.1,6.32,2.31,2.76,4.18,6.14,5.52,10.15s1.96,8.54,1.96,13.62-.62,9.52-1.96,13.53c-1.34,4-3.21,7.3-5.52,10.06-2.31,2.76-4.98,4.89-8.1,6.32-3.12,1.51-6.5,2.22-10.06,2.22s-6.85-.71-9.97-2.22c-3.12-1.42-5.87-3.56-8.19-6.32-2.31-2.76-4.09-6.05-5.43-10.06-1.33-4.01-2.05-8.46-2.05-13.53s.71-9.61,2.05-13.62c1.34-4,3.12-7.39,5.43-10.15ZM517.46,728.89c2.49-.09,4.54-2.58,6.14-7.66,1.51-5.07,2.31-12.55,2.31-22.43s-.8-17.53-2.31-22.52c-1.51-4.98-3.65-7.48-6.23-7.48-2.67.09-4.81,2.58-6.32,7.65-1.6,5.07-2.4,12.55-2.4,22.61.09,9.97.89,17.45,2.4,22.43,1.51,4.98,3.65,7.48,6.41,7.39Z"/>
    <path class="cls-2" d="M572.38,686.17c1.07-1.16,1.87-2.4,2.49-3.83s.89-3.12.89-4.98c0-1.25-.18-2.4-.54-3.47-.44-1.07-.98-1.96-1.6-2.76-.62-.71-1.33-1.25-2.14-1.69-.8-.45-1.69-.62-2.58-.62-1.78,0-3.38.71-4.89,2.14-1.51,1.42-2.23,3.47-2.23,6.14,0,3.74-.8,6.41-2.31,8.01-1.51,1.69-3.29,2.49-5.25,2.49-2.22,0-4.01-.8-5.43-2.31-1.51-1.51-2.22-3.29-2.22-5.52s.62-4,1.87-5.7c1.25-1.6,2.94-2.94,5.07-4,2.05-1.07,4.45-1.87,7.21-2.4,2.76-.53,5.61-.8,8.54-.8s5.43.36,7.83,1.07c2.31.71,4.27,1.69,5.96,3.03,1.69,1.33,2.94,3.03,3.92,4.98.89,1.96,1.33,4.18,1.33,6.67,0,2.67-.53,5.07-1.69,7.21-1.16,2.22-2.58,4.18-4.45,5.87-1.87,1.78-4.01,3.38-6.41,4.81-2.4,1.51-4.9,2.85-7.48,4.09-1.96.98-4.01,1.78-6.23,2.58-2.22.8-4.36,1.78-6.23,2.85-1.87,1.07-3.47,2.31-4.72,3.83-1.34,1.51-1.96,3.38-1.96,5.7.45-.53,1.16-1.16,1.96-1.87s1.78-1.42,2.85-2.05,2.22-1.07,3.47-1.51c1.25-.44,2.49-.62,3.83-.62,2.67,0,4.98.36,7.03.98s3.92,1.33,5.7,2.14c1.69.8,3.38,1.6,5.07,2.23,1.69.71,3.47,1.07,5.34,1.07,1.69,0,3.03-.36,3.83-.98s1.16-1.42,1.16-2.23c0-.71-.36-1.33-1.07-1.96-.8-.62-1.87-.89-3.38-.89-.8,0-1.51-.18-2.31-.45-.8-.27-1.42-.62-2.05-1.07-.62-.44-1.16-1.07-1.51-1.69s-.54-1.25-.54-1.96c0-1.51.54-2.76,1.6-3.83,1.07-1.07,2.4-1.6,4-1.6,1.69,0,3.21.71,4.54,2.05,1.34,1.33,1.96,3.47,1.96,6.41,0,3.74-.36,6.76-.98,9.17s-1.51,4.36-2.58,5.7c-1.16,1.42-2.4,2.4-3.83,2.94-1.51.53-3.03.8-4.72.8-2.13,0-4.09-.27-5.87-.89-1.78-.53-3.56-1.16-5.25-1.96-1.69-.71-3.47-1.42-5.16-2.14-1.78-.71-3.74-1.16-5.79-1.42-.27-.09-.71-.09-1.25-.09-2.05,0-3.47.62-4.45,1.78-.98,1.25-1.87,2.58-2.58,4.09-.09.18-.18.27-.36.27-.27,0-.36-.09-.36-.36,0-2.94-.09-5.61-.18-8.19-.18-2.49-.18-4.9-.09-7.12.09-2.22.36-4.27.89-6.32.45-1.96,1.34-3.83,2.49-5.7,1.16-1.87,2.85-3.56,4.9-5.25,2.05-1.69,4.63-3.29,7.92-4.9,1.87-.98,3.65-1.87,5.16-2.85,1.51-.98,2.76-1.96,3.83-3.12Z"/>
    <path class="cls-2" d="M602.54,684.39c2.05-2.94,4.45-5.43,7.12-7.65,2.67-2.14,5.43-3.92,8.19-5.34,2.76-1.42,5.61-2.49,8.37-3.29,2.76-.71,5.16-1.16,7.39-1.25.45,0,.71.27.71.71v.09c0,.45-.27.71-.71.8-.89.18-2.05.53-3.38,1.07-1.34.62-2.85,1.51-4.36,2.67s-3.12,2.76-4.63,4.72c-1.51,1.96-2.94,4.36-4.18,7.3s-2.22,6.5-3.03,10.5c-.8,4-1.16,8.72-1.16,14.15,0,7.39.53,12.73,1.6,16.11,1.07,3.47,2.58,5.16,4.45,5.16,1.51,0,2.85-.98,4.01-2.94,1.16-1.87,2.22-4.27,3.03-7.21.8-2.94,1.34-6.05,1.78-9.43.36-3.29.53-6.41.45-9.35-.09-2.94-.36-5.34-.89-7.3-.62-1.87-1.42-2.85-2.58-2.85-.36,0-.71.18-.98.53-.27.44-.45,1.07-.45,1.87,0,1.16-.36,2.05-1.07,2.85-.8.8-1.69,1.16-2.76,1.16s-1.96-.36-2.67-1.07c-.8-.62-1.16-1.51-1.16-2.67,0-.8.27-1.51.8-2.05.45-.53,1.07-.98,1.87-1.33.8-.27,1.6-.53,2.4-.62s1.51-.18,2.13-.18c2.67,0,5.25.45,7.83,1.42,2.49.98,4.72,2.31,6.67,4.09,1.96,1.87,3.56,4,4.72,6.59,1.16,2.58,1.78,5.52,1.78,8.72s-.62,6.23-1.87,8.81c-1.33,2.58-3.03,4.81-5.16,6.59-2.22,1.87-4.72,3.2-7.65,4.18-2.94.98-6.05,1.42-9.35,1.42s-6.41-.53-9.35-1.51c-2.94-.98-5.52-2.58-7.65-4.63-2.22-2.05-3.92-4.63-5.16-7.74-1.33-3.12-1.96-6.85-1.96-11.13s.62-8.54,1.87-12.19c1.25-3.65,2.94-6.85,4.98-9.79Z"/>
  </g>
  <path class="cls-1" d="M851.28,725.31c-57.25,66.54-136.63,112.3-221.4,133.74-120.11,30.57-256.53,11.15-354.36-68.51-72.8-58.07-114.46-151.94-104.06-245.17,9.21-92.53,63.04-176.26,134.07-234.21,110.27-90.22,263.92-124.97,402.52-90.22,41.05,10.35,80.4,26.91,116.55,50.4,17.66,11.48,22.66,35.1,11.18,52.76-11.48,17.66-35.1,22.66-52.76,11.18-26.43-18.75-56.56-33.29-88.22-43.12-118.7-36.34-254.48-10.88-353.48,64.21-101.86,75.94-160.54,210.71-98.86,330.33,29.33,57.23,81.11,99.81,139.81,125.4,90.63,39.63,196.38,40.05,289.68,8.4,63.02-21.3,121.52-57.35,166.82-106.3,7.58-7.77,19.37,2.44,12.52,11.1h0Z"/>
  <g>
    <path class="cls-2" d="M253.16,494.67c17.37-44.71,56.96-81.2,119.29-83.73,25.82-1.05,55.72,11.04,70.84,33.03,12.09,16.38,9.69,42.81-10.52,51.52-18.82,8.77-41.33-7.21-40.83-27.66-1.64-23.18,29.42-35.6,14.54-44.57-44.98-16.56-105.81,102.29-107.03,137.81-2.6,25.77,1.09,48.55,19.64,62.74,10.86,7.62,22.55,10.37,34.34,5.85,13.2-5.18,20.42-19.19,20.26-33.5-.16-12.16,6.3-23.78,17.17-29.08,17.75-9.01,40.08,6.82,39.44,26.24-.19,27.57-30.92,39.15-53.98,43.78-51.36,10.49-107.27-12.93-123.89-63.69-8.32-25.43-9.44-52.57.72-78.73Z"/>
    <path class="cls-2" d="M530.05,546.21c0-5.69,1.84-10.69,5.53-15.01,3.68-4.32,7.79-8.85,12.33-13.59,4.53-4.74,8.64-10.32,12.33-16.75,3.68-6.43,5.53-14.7,5.53-24.81,0-8.01-.9-15.33-2.69-21.97-1.79-6.64-4.38-12.38-7.74-17.23-3.37-4.84-7.32-8.64-11.85-11.38-4.53-2.74-9.64-4.11-15.33-4.11h-4.74v193.12c0,1.9.1,3.79.32,5.69,0,3.59.32,7.17.95,10.75.63,2.74-.42,4.11-3.16,4.11h-72.38c-1.27,0-2.21-.63-2.84-1.9l-.63-1.58c-.63-1.47,0-2.21,1.9-2.21h2.21c2.74,0,4.79-.63,6.16-1.9,1.37-1.26,2.37-2.74,3-4.42.84-1.9,1.26-4,1.26-6.32v-184.9c0-2.32-.42-4.43-1.26-6.32-.63-1.68-1.63-3.16-3-4.42-1.37-1.26-3.43-1.9-6.16-1.9h-2.21c-1.9,0-2.53-.74-1.9-2.21l.63-1.58c.63-1.26,1.58-1.9,2.84-1.9h102.72c25.49,0,45.52,4.74,60.05,14.22,14.54,9.48,21.81,23.18,21.81,41.09,0,6.11-1.16,11.75-3.48,16.91-2.32,5.17-5.48,9.96-9.48,14.38-4.01,4.42-8.75,8.48-14.22,12.17-5.48,3.69-11.27,7.01-17.38,9.96,16.22,4.42,29.4,11.65,39.51,21.65,10.12,10.01,15.17,21.97,15.17,35.87,0,7.17-1.16,14.33-3.48,21.49-2.32,7.17-6.11,13.59-11.38,19.28-5.27,5.69-12.17,10.27-20.7,13.75-8.53,3.48-18.92,5.22-31.13,5.22-9.69,0-21.29-1.48-34.77-4.42-1.26,0-1.9-.84-1.9-2.53,0-1.05.63-1.79,1.9-2.21,5.06-.63,9.64-2.63,13.75-6.01,4.11-3.37,7.64-7.63,10.59-12.8,2.95-5.16,5.22-11.11,6.8-17.86,1.58-6.74,2.37-13.8,2.37-21.18,0-5.69-1-10.85-3-15.49-2-4.63-4.48-8.58-7.43-11.85-2.95-3.26-6.38-5.79-10.27-7.59-3.9-1.79-7.74-2.69-11.54-2.69-2.95,0-4.58.69-4.9,2.05-.32,1.37.16,2.27,1.42,2.69,2.1.42,3.9,1.48,5.37,3.16,1.47,1.69,2.21,3.59,2.21,5.69,0,2.32-.9,4.32-2.69,6.01-1.79,1.69-3.85,2.53-6.16,2.53s-4.38-.89-6.16-2.69c-1.79-1.79-2.69-4.47-2.69-8.06Z"/>
    <path class="cls-2" d="M670.85,629.38c-6.61-5.23-5.53-11.41-5.53-15.21v-180.8c-.42-1.68-1.26-3.37-2.53-5.06-1.06-1.47-2.37-3.05-3.95-4.74-1.58-1.68-3.74-3.16-6.48-4.42-1.48-.84-1.9-2-1.26-3.48l.32-.32c.42-1.26,1.26-1.9,2.53-1.9h75.86c.84,0,1.68.42,2.53,1.26l100.51,172.89v-55c-.42-21.28-2.53-40.25-6.32-56.89-1.69-6.95-3.79-13.85-6.32-20.7-2.53-6.85-5.64-12.9-9.32-18.17-3.69-5.26-8.01-9.53-12.96-12.8-4.95-3.26-10.7-4.9-17.23-4.9h-1.9c-1.26,0-1.79-.63-1.58-1.9l.63-1.9c.42-1.26,1.37-1.9,2.84-1.9,0,0,39.59-4.07,51.49,4.03,7.26,4.94,9.99,10.98,9.83,16.83v198.5c0,1.48-1.21,2.63-3.63,3.48-2.42.84-5.21,1.53-8.38,2.05-3.16.52-6.27.89-9.32,1.11-3.06.21-5.11.32-6.16.32-6.53,0-12.28-.95-17.23-2.84-4.95-1.9-9.32-4.47-13.12-7.74-3.79-3.26-7.17-7-10.11-11.22-2.95-4.21-5.69-8.64-8.22-13.27l-91.35-153.3v75.54c.63,19.18,2.84,36.25,6.64,51.2,1.68,6.53,3.79,12.86,6.32,18.96,2.53,6.11,5.69,11.59,9.48,16.44,3.79,4.85,8.27,8.75,13.43,11.7,5.16,2.95,11.01,4.42,17.54,4.42h2.53c1.47,0,2,.74,1.58,2.21l-.32,1.26c-.43,1.26-1.37,1.9-2.84,1.9,0,0-46.48,3.47-58-5.66Z"/>
  </g>
</svg>