<?xml version="1.0" encoding="UTF-8"?>
<svg id="Livello_informazioni_campione" data-name="Livello informazioni campione" xmlns="http://www.w3.org/2000/svg" viewBox="0 0 1080 587.64">
  <defs>
    <style>
      .cls-1 {
        fill: #fb6306;
      }

      .cls-2 {
        fill: none;
        stroke: #000;
        stroke-miterlimit: 10;
      }

      .cls-3 {
        fill: #fff;
      }

      .cls-4 {
        fill: #fffae3;
      }

      .cls-5 {
        fill: #0f1e57;
      }
    </style>
  </defs>
  <g>
    <rect class="cls-3" x="721.64" y="29.76" width="319.95" height="526.82"/>
    <line class="cls-2" x1="743.71" y1="377.29" x2="1019.53" y2="377.29"/>
    <g>
      <path class="cls-5" d="M758.8,533.9c-.88.44-2.65.88-4.91.88-5.24,0-9.19-3.31-9.19-9.41s3.95-9.77,9.71-9.77c2.32,0,3.78.5,4.41.83l-.58,1.96c-.91-.44-2.21-.77-3.75-.77-4.36,0-7.26,2.79-7.26,7.67,0,4.55,2.62,7.48,7.15,7.48,1.46,0,2.95-.3,3.92-.77l.5,1.9Z"/>
      <path class="cls-5" d="M777.47,526.34c-.14-2.59-.3-5.71-.28-8.03h-.08c-.63,2.18-1.41,4.5-2.35,7.06l-3.28,9.02h-1.82l-3.01-8.86c-.88-2.62-1.63-5.02-2.15-7.23h-.06c-.06,2.32-.19,5.43-.36,8.22l-.5,7.97h-2.29l1.3-18.59h3.06l3.17,8.99c.77,2.29,1.41,4.33,1.88,6.26h.08c.47-1.88,1.13-3.92,1.96-6.26l3.31-8.99h3.06l1.16,18.59h-2.34l-.47-8.17Z"/>
      <path class="cls-5" d="M788.12,534.51v-7.89l-5.88-10.7h2.73l2.62,5.13c.72,1.41,1.27,2.54,1.85,3.83h.06c.52-1.21,1.16-2.43,1.88-3.83l2.68-5.13h2.73l-6.24,10.68v7.92h-2.43Z"/>
      <path class="cls-5" d="M798.71,515.92h2.4v8.97h.08c.5-.72.99-1.38,1.46-1.99l5.68-6.98h2.98l-6.73,7.89,7.26,10.7h-2.84l-6.12-9.13-1.77,2.04v7.09h-2.4v-18.59Z"/>
      <path class="cls-5" d="M847.88,534.51v-1.49l1.9-1.85c4.58-4.36,6.65-6.68,6.68-9.38,0-1.82-.88-3.5-3.56-3.5-1.63,0-2.98.83-3.81,1.52l-.77-1.71c1.24-1.05,3.01-1.82,5.08-1.82,3.86,0,5.49,2.65,5.49,5.21,0,3.31-2.4,5.99-6.18,9.63l-1.43,1.32v.05h8.06v2.01h-11.45Z"/>
      <path class="cls-5" d="M861.23,537.9c.61-1.63,1.35-4.58,1.66-6.59l2.7-.28c-.63,2.34-1.85,5.41-2.62,6.7l-1.74.17Z"/>
      <path class="cls-5" d="M873.59,534.51v-1.49l1.9-1.85c4.58-4.36,6.65-6.68,6.68-9.38,0-1.82-.88-3.5-3.56-3.5-1.63,0-2.98.83-3.81,1.52l-.77-1.71c1.24-1.05,3.01-1.82,5.08-1.82,3.86,0,5.49,2.65,5.49,5.21,0,3.31-2.4,5.99-6.18,9.63l-1.43,1.32v.05h8.06v2.01h-11.45Z"/>
      <path class="cls-5" d="M886.94,537.9c.61-1.63,1.35-4.58,1.66-6.59l2.7-.28c-.63,2.34-1.85,5.41-2.62,6.7l-1.74.17Z"/>
      <path class="cls-5" d="M904.57,518.84h-.06l-3.12,1.68-.47-1.85,3.92-2.1h2.07v17.93h-2.34v-15.67Z"/>
      <path class="cls-5" d="M924.15,518.62h-6.84l-.69,4.61c.41-.05.8-.11,1.46-.11,1.38,0,2.76.3,3.86.97,1.41.8,2.57,2.34,2.57,4.61,0,3.5-2.79,6.12-6.68,6.12-1.96,0-3.61-.55-4.47-1.1l.61-1.85c.75.44,2.21.99,3.83.99,2.29,0,4.25-1.49,4.25-3.89-.03-2.32-1.57-3.97-5.16-3.97-1.02,0-1.82.11-2.48.19l1.16-8.61h8.58v2.04Z"/>
      <path class="cls-5" d="M926.79,537.9c.61-1.63,1.35-4.58,1.66-6.59l2.7-.28c-.63,2.34-1.85,5.41-2.62,6.7l-1.74.17Z"/>
      <path class="cls-5" d="M951.07,525.35c0,6.1-2.26,9.46-6.23,9.46-3.5,0-5.88-3.28-5.93-9.21,0-6.01,2.59-9.33,6.23-9.33s5.93,3.37,5.93,9.08ZM941.33,525.63c0,4.66,1.43,7.31,3.64,7.31,2.48,0,3.67-2.9,3.67-7.48s-1.13-7.31-3.64-7.31c-2.12,0-3.67,2.59-3.67,7.48Z"/>
    </g>
    <g>
      <path class="cls-5" d="M748.21,474.54v7.78h8.99v-7.78h2.43v18.59h-2.43v-8.72h-8.99v8.72h-2.4v-18.59h2.4Z"/>
      <path class="cls-5" d="M763.46,490.21c1.08.66,2.65,1.21,4.3,1.21,2.46,0,3.89-1.3,3.89-3.17,0-1.74-.99-2.73-3.5-3.7-3.03-1.08-4.91-2.65-4.91-5.27,0-2.9,2.4-5.05,6.01-5.05,1.9,0,3.28.44,4.11.91l-.66,1.96c-.61-.33-1.85-.88-3.53-.88-2.54,0-3.5,1.52-3.5,2.79,0,1.74,1.13,2.59,3.7,3.59,3.14,1.21,4.74,2.73,4.74,5.46,0,2.87-2.12,5.35-6.51,5.35-1.79,0-3.75-.52-4.75-1.19l.61-2.01Z"/>
      <path class="cls-5" d="M777.39,474.79c1.05-.22,2.7-.39,4.39-.39,2.4,0,3.94.41,5.1,1.35.97.72,1.54,1.82,1.54,3.28,0,1.79-1.19,3.37-3.15,4.08v.05c1.77.44,3.83,1.9,3.83,4.66,0,1.6-.63,2.81-1.57,3.72-1.3,1.19-3.39,1.74-6.43,1.74-1.66,0-2.92-.11-3.72-.22v-18.29ZM779.79,482.41h2.18c2.54,0,4.03-1.32,4.03-3.12,0-2.18-1.66-3.03-4.08-3.03-1.1,0-1.74.08-2.12.17v5.99ZM779.79,491.32c.47.08,1.16.11,2.01.11,2.48,0,4.77-.91,4.77-3.61,0-2.54-2.18-3.59-4.8-3.59h-1.99v7.09Z"/>
      <path class="cls-5" d="M857.46,493.14v-4.88h-8.33v-1.6l8-11.45h2.62v11.15h2.51v1.9h-2.51v4.88h-2.29ZM857.46,486.35v-5.99c0-.94.03-1.88.08-2.81h-.08c-.55,1.05-.99,1.82-1.49,2.65l-4.39,6.1v.06h5.88Z"/>
      <path class="cls-5" d="M865.51,491.43c.52.06,1.13,0,1.96-.08,1.41-.19,2.73-.77,3.75-1.74,1.19-1.08,2.04-2.65,2.37-4.77h-.08c-.99,1.21-2.43,1.93-4.22,1.93-3.23,0-5.3-2.43-5.3-5.49,0-3.39,2.46-6.37,6.12-6.37s5.93,2.98,5.93,7.56c0,3.94-1.32,6.7-3.09,8.41-1.38,1.35-3.28,2.18-5.21,2.4-.88.14-1.66.17-2.23.14v-1.99ZM866.39,481.11c0,2.23,1.35,3.81,3.45,3.81,1.63,0,2.9-.8,3.53-1.88.14-.22.22-.5.22-.88,0-3.06-1.13-5.41-3.67-5.41-2.07,0-3.53,1.82-3.53,4.36Z"/>
      <path class="cls-5" d="M877.45,496.53c.61-1.63,1.35-4.58,1.66-6.59l2.7-.28c-.63,2.34-1.85,5.41-2.62,6.7l-1.74.17Z"/>
      <path class="cls-5" d="M895.08,477.47h-.06l-3.12,1.68-.47-1.85,3.92-2.1h2.07v17.93h-2.34v-15.67Z"/>
      <path class="cls-5" d="M909.23,477.47h-.05l-3.12,1.68-.47-1.85,3.92-2.1h2.07v17.93h-2.34v-15.67Z"/>
      <path class="cls-5" d="M926.19,480.26c0,3.78-1.99,5.66-4.3,5.66s-4.17-1.79-4.19-5.41c0-3.59,1.96-5.6,4.33-5.6,2.51,0,4.17,1.93,4.17,5.35ZM919.62,480.42c-.06,2.29.8,4.03,2.32,4.03,1.6,0,2.32-1.71,2.32-4.08,0-2.18-.63-4-2.32-4-1.52,0-2.32,1.79-2.32,4.06ZM921.72,493.44l10.54-18.54h1.54l-10.54,18.54h-1.54ZM937.86,487.68c0,3.78-1.99,5.66-4.28,5.66s-4.17-1.79-4.19-5.38c0-3.61,1.96-5.63,4.33-5.63,2.51,0,4.14,1.93,4.14,5.35ZM931.29,487.84c-.03,2.29.85,4.03,2.34,4.03,1.6,0,2.32-1.71,2.32-4.08,0-2.18-.63-4-2.32-4-1.52,0-2.34,1.79-2.34,4.06Z"/>
      <path class="cls-5" d="M939.15,496.53c.61-1.63,1.35-4.58,1.66-6.59l2.7-.28c-.63,2.34-1.85,5.41-2.62,6.7l-1.74.17Z"/>
      <path class="cls-5" d="M956.78,477.47h-.06l-3.12,1.68-.47-1.85,3.92-2.1h2.07v17.93h-2.34v-15.67Z"/>
      <path class="cls-5" d="M977.57,483.98c0,6.1-2.26,9.46-6.23,9.46-3.5,0-5.88-3.28-5.93-9.21,0-6.01,2.59-9.33,6.23-9.33s5.93,3.37,5.93,9.08ZM967.84,484.26c0,4.66,1.43,7.31,3.64,7.31,2.48,0,3.67-2.9,3.67-7.48s-1.13-7.31-3.64-7.31c-2.12,0-3.67,2.59-3.67,7.48Z"/>
      <path class="cls-5" d="M991.72,483.98c0,6.1-2.26,9.46-6.23,9.46-3.5,0-5.88-3.28-5.93-9.21,0-6.01,2.59-9.33,6.24-9.33s5.93,3.37,5.93,9.08ZM981.99,484.26c0,4.66,1.43,7.31,3.64,7.31,2.48,0,3.67-2.9,3.67-7.48s-1.13-7.31-3.64-7.31c-2.12,0-3.67,2.59-3.67,7.48Z"/>
      <path class="cls-5" d="M1002.04,480.26c0,3.78-1.99,5.66-4.3,5.66s-4.17-1.79-4.19-5.41c0-3.59,1.96-5.6,4.33-5.6,2.51,0,4.17,1.93,4.17,5.35ZM995.47,480.42c-.05,2.29.8,4.03,2.32,4.03,1.6,0,2.32-1.71,2.32-4.08,0-2.18-.63-4-2.32-4-1.52,0-2.32,1.79-2.32,4.06ZM997.57,493.44l10.54-18.54h1.54l-10.54,18.54h-1.54ZM1013.71,487.68c0,3.78-1.99,5.66-4.28,5.66s-4.17-1.79-4.19-5.38c0-3.61,1.96-5.63,4.33-5.63,2.51,0,4.14,1.93,4.14,5.35ZM1007.14,487.84c-.03,2.29.86,4.03,2.34,4.03,1.6,0,2.32-1.71,2.32-4.08,0-2.18-.63-4-2.32-4-1.52,0-2.34,1.79-2.34,4.06Z"/>
    </g>
    <g>
      <path class="cls-5" d="M745.81,433.42c1.21-.25,2.95-.39,4.61-.39,2.57,0,4.22.47,5.38,1.52.94.83,1.46,2.1,1.46,3.53,0,2.46-1.54,4.08-3.5,4.75v.08c1.43.5,2.29,1.82,2.73,3.75.61,2.59,1.05,4.39,1.43,5.1h-2.48c-.3-.52-.72-2.12-1.24-4.44-.55-2.57-1.54-3.53-3.72-3.61h-2.26v8.06h-2.4v-18.35ZM748.21,441.89h2.46c2.57,0,4.19-1.41,4.19-3.53,0-2.4-1.74-3.45-4.28-3.48-1.16,0-1.99.11-2.37.22v6.79Z"/>
      <path class="cls-5" d="M774.88,450.94c-1.08.39-3.2,1.02-5.71,1.02-2.81,0-5.13-.72-6.95-2.46-1.6-1.54-2.59-4.03-2.59-6.92.03-5.54,3.83-9.6,10.07-9.6,2.15,0,3.83.47,4.63.86l-.58,1.96c-.99-.44-2.23-.8-4.11-.8-4.52,0-7.48,2.81-7.48,7.48s2.84,7.5,7.17,7.5c1.57,0,2.65-.22,3.2-.5v-5.55h-3.78v-1.93h6.12v8.94Z"/>
      <path class="cls-5" d="M778.55,433.42c1.05-.22,2.7-.39,4.39-.39,2.4,0,3.94.41,5.1,1.35.97.72,1.54,1.82,1.54,3.28,0,1.79-1.19,3.37-3.15,4.08v.05c1.77.44,3.83,1.9,3.83,4.66,0,1.6-.63,2.81-1.57,3.72-1.3,1.19-3.39,1.74-6.43,1.74-1.66,0-2.92-.11-3.72-.22v-18.29ZM780.95,441.03h2.18c2.54,0,4.03-1.32,4.03-3.12,0-2.18-1.66-3.03-4.08-3.03-1.1,0-1.74.08-2.12.17v5.99ZM780.95,449.95c.47.08,1.16.11,2.01.11,2.48,0,4.77-.91,4.77-3.61,0-2.54-2.18-3.59-4.8-3.59h-1.99v7.09Z"/>
      <path class="cls-5" d="M851.11,451.77v-1.49l1.9-1.85c4.58-4.36,6.65-6.68,6.68-9.38,0-1.82-.88-3.5-3.56-3.5-1.63,0-2.98.83-3.81,1.52l-.77-1.71c1.24-1.05,3.01-1.82,5.08-1.82,3.86,0,5.49,2.65,5.49,5.21,0,3.31-2.4,5.99-6.18,9.63l-1.43,1.32v.05h8.06v2.01h-11.45Z"/>
      <path class="cls-5" d="M875.96,435.88h-6.84l-.69,4.61c.41-.05.8-.11,1.46-.11,1.38,0,2.76.3,3.86.97,1.41.8,2.57,2.34,2.57,4.61,0,3.5-2.79,6.12-6.68,6.12-1.96,0-3.61-.55-4.47-1.1l.61-1.85c.75.44,2.21.99,3.83.99,2.29,0,4.25-1.49,4.25-3.89-.03-2.32-1.57-3.97-5.16-3.97-1.02,0-1.82.11-2.48.19l1.16-8.61h8.58v2.04Z"/>
      <path class="cls-5" d="M890.11,435.88h-6.84l-.69,4.61c.41-.05.8-.11,1.46-.11,1.38,0,2.76.3,3.86.97,1.41.8,2.57,2.34,2.57,4.61,0,3.5-2.79,6.12-6.68,6.12-1.96,0-3.61-.55-4.47-1.1l.61-1.85c.75.44,2.21.99,3.83.99,2.29,0,4.25-1.49,4.25-3.89-.03-2.32-1.57-3.97-5.16-3.97-1.02,0-1.82.11-2.48.19l1.16-8.61h8.58v2.04Z"/>
      <path class="cls-5" d="M892.76,455.16c.61-1.63,1.35-4.58,1.66-6.59l2.7-.28c-.63,2.34-1.85,5.41-2.62,6.7l-1.74.17Z"/>
      <path class="cls-5" d="M905.12,451.77v-1.49l1.9-1.85c4.58-4.36,6.65-6.68,6.68-9.38,0-1.82-.88-3.5-3.56-3.5-1.63,0-2.98.83-3.81,1.52l-.77-1.71c1.24-1.05,3.01-1.82,5.08-1.82,3.86,0,5.49,2.65,5.49,5.21,0,3.31-2.4,5.99-6.18,9.63l-1.43,1.32v.05h8.06v2.01h-11.45Z"/>
      <path class="cls-5" d="M929.97,435.88h-6.84l-.69,4.61c.41-.05.8-.11,1.46-.11,1.38,0,2.76.3,3.86.97,1.41.8,2.57,2.34,2.57,4.61,0,3.5-2.79,6.12-6.68,6.12-1.96,0-3.61-.55-4.47-1.1l.61-1.85c.75.44,2.21.99,3.83.99,2.29,0,4.25-1.49,4.25-3.89-.03-2.32-1.57-3.97-5.16-3.97-1.02,0-1.82.11-2.48.19l1.16-8.61h8.58v2.04Z"/>
      <path class="cls-5" d="M945.33,442.61c0,6.1-2.26,9.46-6.23,9.46-3.5,0-5.88-3.28-5.93-9.21,0-6.01,2.59-9.33,6.24-9.33s5.93,3.37,5.93,9.08ZM935.59,442.88c0,4.66,1.43,7.31,3.64,7.31,2.48,0,3.67-2.9,3.67-7.48s-1.13-7.31-3.64-7.31c-2.12,0-3.67,2.59-3.67,7.48Z"/>
      <path class="cls-5" d="M946.76,455.16c.61-1.63,1.35-4.58,1.66-6.59l2.7-.28c-.63,2.34-1.85,5.41-2.62,6.7l-1.74.17Z"/>
      <path class="cls-5" d="M959.12,451.77v-1.49l1.9-1.85c4.58-4.36,6.65-6.68,6.68-9.38,0-1.82-.88-3.5-3.56-3.5-1.63,0-2.98.83-3.81,1.52l-.77-1.71c1.24-1.05,3.01-1.82,5.08-1.82,3.86,0,5.49,2.65,5.49,5.21,0,3.31-2.4,5.99-6.18,9.63l-1.43,1.32v.05h8.06v2.01h-11.45Z"/>
      <path class="cls-5" d="M973.27,451.77v-1.49l1.9-1.85c4.58-4.36,6.65-6.68,6.68-9.38,0-1.82-.88-3.5-3.56-3.5-1.63,0-2.98.83-3.81,1.52l-.77-1.71c1.24-1.05,3.01-1.82,5.08-1.82,3.86,0,5.49,2.65,5.49,5.21,0,3.31-2.4,5.99-6.18,9.63l-1.43,1.32v.05h8.06v2.01h-11.45Z"/>
      <path class="cls-5" d="M999.06,433.83v1.6l-7.81,16.33h-2.51l7.78-15.86v-.06h-8.77v-2.01h11.31Z"/>
    </g>
    <g>
      <path class="cls-5" d="M755.43,401.68h-7.23v6.7h8.06v2.01h-10.46v-18.59h10.04v2.01h-7.64v5.88h7.23v1.99Z"/>
      <path class="cls-5" d="M758.96,407.91c.72.47,1.99.97,3.2.97,1.77,0,2.59-.88,2.59-1.99,0-1.16-.69-1.79-2.48-2.46-2.4-.85-3.53-2.18-3.53-3.78,0-2.15,1.74-3.92,4.61-3.92,1.35,0,2.54.39,3.28.83l-.61,1.77c-.52-.33-1.49-.77-2.73-.77-1.44,0-2.24.83-2.24,1.82,0,1.1.8,1.6,2.54,2.26,2.32.88,3.5,2.04,3.5,4.03,0,2.34-1.82,4-4.99,4-1.46,0-2.81-.36-3.75-.91l.61-1.85Z"/>
      <path class="cls-5" d="M777.61,410.39l-.19-1.68h-.08c-.75,1.05-2.18,1.99-4.08,1.99-2.7,0-4.08-1.9-4.08-3.83,0-3.23,2.87-4.99,8.03-4.97v-.28c0-1.1-.3-3.09-3.03-3.09-1.24,0-2.54.39-3.48.99l-.55-1.6c1.1-.72,2.7-1.19,4.39-1.19,4.08,0,5.08,2.79,5.08,5.46v4.99c0,1.16.06,2.29.22,3.2h-2.21ZM777.25,403.58c-2.65-.06-5.66.41-5.66,3.01,0,1.57,1.05,2.32,2.29,2.32,1.74,0,2.84-1.1,3.23-2.23.08-.25.14-.52.14-.77v-2.32Z"/>
      <path class="cls-5" d="M842.53,410.39l.72-5.41h-2.26v-1.63h2.51l.52-4h-2.37v-1.63h2.62l.72-5.27h1.6l-.69,5.27h2.87l.72-5.27h1.63l-.69,5.27h2.26v1.63h-2.51l-.5,4h2.37v1.63h-2.62l-.72,5.41h-1.66l.72-5.41h-2.87l-.72,5.41h-1.66ZM848.02,403.36l.52-4h-2.87l-.52,4h2.87Z"/>
      <path class="cls-5" d="M855.77,391.8h10.01v2.01h-7.61v6.18h7.04v1.99h-7.04v8.41h-2.4v-18.59Z"/>
      <path class="cls-5" d="M869.21,391.8h10.01v2.01h-7.61v6.18h7.04v1.99h-7.04v8.41h-2.4v-18.59Z"/>
      <path class="cls-5" d="M882.64,391.8h10.01v2.01h-7.61v6.18h7.03v1.99h-7.03v8.41h-2.4v-18.59Z"/>
      <path class="cls-5" d="M896.93,404.54l-1.93,5.85h-2.48l6.32-18.59h2.9l6.34,18.59h-2.57l-1.99-5.85h-6.59ZM903.02,402.67l-1.82-5.35c-.41-1.21-.69-2.32-.97-3.39h-.05c-.28,1.1-.58,2.23-.94,3.37l-1.82,5.38h5.6Z"/>
      <path class="cls-5" d="M920.43,401.68h-7.23v6.7h8.06v2.01h-10.46v-18.59h10.04v2.01h-7.64v5.88h7.23v1.99Z"/>
      <path class="cls-5" d="M924.09,407.61c.69.44,2.29,1.13,3.97,1.13,3.12,0,4.08-1.99,4.06-3.48-.03-2.51-2.29-3.59-4.63-3.59h-1.35v-1.82h1.35c1.77,0,4-.91,4-3.03,0-1.43-.91-2.7-3.15-2.7-1.43,0-2.81.63-3.59,1.19l-.63-1.77c.94-.69,2.76-1.38,4.69-1.38,3.53,0,5.13,2.1,5.13,4.28,0,1.85-1.1,3.42-3.31,4.22v.06c2.21.44,4,2.1,4,4.61,0,2.87-2.23,5.38-6.54,5.38-2.01,0-3.78-.63-4.66-1.21l.66-1.88Z"/>
    </g>
    <g>
      <path class="cls-5" d="M746.02,348.84c1.15-.24,2.97-.42,4.82-.42,2.64,0,4.34.46,5.61,1.49,1.06.79,1.7,2,1.7,3.61,0,1.97-1.3,3.7-3.46,4.49v.06c1.94.49,4.22,2.09,4.22,5.13,0,1.76-.7,3.09-1.73,4.1-1.43,1.3-3.73,1.91-7.07,1.91-1.82,0-3.21-.12-4.09-.24v-20.11ZM748.65,357.22h2.4c2.79,0,4.43-1.46,4.43-3.43,0-2.4-1.82-3.34-4.49-3.34-1.21,0-1.91.09-2.34.18v6.58ZM748.65,367.02c.52.09,1.27.12,2.21.12,2.73,0,5.25-1,5.25-3.97,0-2.79-2.4-3.94-5.28-3.94h-2.18v7.8Z"/>
      <path class="cls-5" d="M765.1,348.57v20.45h-2.64v-20.45h2.64Z"/>
      <path class="cls-5" d="M773.02,362.59l-2.12,6.43h-2.73l6.95-20.45h3.18l6.98,20.45h-2.82l-2.18-6.43h-7.25ZM779.72,360.52l-2-5.88c-.46-1.33-.76-2.55-1.06-3.73h-.06c-.3,1.21-.64,2.46-1.03,3.7l-2,5.92h6.16Z"/>
      <path class="cls-5" d="M788.28,369.02v-20.45h2.88l6.55,10.34c1.52,2.4,2.7,4.55,3.67,6.64l.06-.03c-.24-2.73-.3-5.22-.3-8.4v-8.55h2.49v20.45h-2.67l-6.49-10.37c-1.42-2.27-2.79-4.61-3.82-6.83l-.09.03c.15,2.58.21,5.04.21,8.43v8.74h-2.49Z"/>
      <path class="cls-5" d="M822.53,368.35c-.97.49-2.91.97-5.4.97-5.76,0-10.1-3.64-10.1-10.34s4.34-10.74,10.68-10.74c2.55,0,4.16.55,4.85.91l-.64,2.15c-1-.49-2.43-.85-4.13-.85-4.79,0-7.98,3.06-7.98,8.43,0,5.01,2.88,8.22,7.86,8.22,1.61,0,3.25-.33,4.31-.85l.55,2.09Z"/>
      <path class="cls-5" d="M842.68,358.58c0,7.04-4.28,10.77-9.5,10.77s-9.19-4.19-9.19-10.37c0-6.49,4.04-10.74,9.5-10.74s9.19,4.28,9.19,10.34ZM826.81,358.92c0,4.37,2.37,8.28,6.52,8.28s6.55-3.85,6.55-8.49c0-4.06-2.12-8.31-6.52-8.31s-6.55,4.03-6.55,8.52Z"/>
      <path class="cls-5" d="M866.83,368.35c-.97.49-2.91.97-5.4.97-5.76,0-10.1-3.64-10.1-10.34s4.34-10.74,10.68-10.74c2.55,0,4.16.55,4.85.91l-.64,2.15c-1-.49-2.43-.85-4.13-.85-4.79,0-7.98,3.06-7.98,8.43,0,5.01,2.88,8.22,7.86,8.22,1.61,0,3.25-.33,4.31-.85l.55,2.09Z"/>
      <path class="cls-5" d="M870.14,348.84c1.15-.24,2.97-.42,4.82-.42,2.64,0,4.34.46,5.61,1.49,1.06.79,1.7,2,1.7,3.61,0,1.97-1.3,3.7-3.46,4.49v.06c1.94.49,4.22,2.09,4.22,5.13,0,1.76-.7,3.09-1.73,4.1-1.43,1.3-3.73,1.91-7.07,1.91-1.82,0-3.21-.12-4.09-.24v-20.11ZM872.77,357.22h2.4c2.79,0,4.43-1.46,4.43-3.43,0-2.4-1.82-3.34-4.49-3.34-1.21,0-1.91.09-2.34.18v6.58ZM872.77,367.02c.52.09,1.27.12,2.21.12,2.73,0,5.25-1,5.25-3.97,0-2.79-2.4-3.94-5.28-3.94h-2.18v7.8Z"/>
      <path class="cls-5" d="M886.58,369.02v-20.45h2.88l6.55,10.34c1.52,2.4,2.7,4.55,3.67,6.64l.06-.03c-.24-2.73-.3-5.22-.3-8.4v-8.55h2.49v20.45h-2.67l-6.49-10.37c-1.42-2.27-2.79-4.61-3.82-6.83l-.09.03c.15,2.58.21,5.04.21,8.43v8.74h-2.49Z"/>
    </g>
    <rect class="cls-4" x="743.71" y="51.82" width="275.82" height="275.82"/>
  </g>
  <g>
    <rect class="cls-3" x="374.11" y="29.76" width="319.95" height="526.82"/>
    <line class="cls-2" x1="396.18" y1="377.29" x2="672" y2="377.29"/>
    <g>
      <path class="cls-5" d="M411.27,533.9c-.88.44-2.65.88-4.91.88-5.24,0-9.19-3.31-9.19-9.41s3.95-9.77,9.71-9.77c2.32,0,3.78.5,4.41.83l-.58,1.96c-.91-.44-2.21-.77-3.75-.77-4.36,0-7.26,2.79-7.26,7.67,0,4.55,2.62,7.48,7.15,7.48,1.46,0,2.95-.3,3.92-.77l.5,1.9Z"/>
      <path class="cls-5" d="M429.94,526.34c-.14-2.59-.3-5.71-.28-8.03h-.08c-.63,2.18-1.41,4.5-2.35,7.06l-3.28,9.02h-1.82l-3.01-8.86c-.88-2.62-1.63-5.02-2.15-7.23h-.06c-.06,2.32-.19,5.43-.36,8.22l-.5,7.97h-2.29l1.3-18.59h3.06l3.17,8.99c.77,2.29,1.41,4.33,1.88,6.26h.08c.47-1.88,1.13-3.92,1.96-6.26l3.31-8.99h3.06l1.16,18.59h-2.35l-.47-8.17Z"/>
      <path class="cls-5" d="M440.58,534.51v-7.89l-5.88-10.7h2.73l2.62,5.13c.72,1.41,1.27,2.54,1.85,3.83h.06c.52-1.21,1.16-2.43,1.88-3.83l2.68-5.13h2.73l-6.23,10.68v7.92h-2.43Z"/>
      <path class="cls-5" d="M451.17,515.92h2.4v8.97h.08c.5-.72.99-1.38,1.46-1.99l5.68-6.98h2.98l-6.73,7.89,7.26,10.7h-2.84l-6.12-9.13-1.77,2.04v7.09h-2.4v-18.59Z"/>
      <path class="cls-5" d="M505.62,518.84h-.06l-3.12,1.68-.47-1.85,3.92-2.1h2.07v17.93h-2.34v-15.67Z"/>
      <path class="cls-5" d="M526.42,525.35c0,6.1-2.26,9.46-6.23,9.46-3.5,0-5.88-3.28-5.93-9.21,0-6.01,2.59-9.33,6.23-9.33s5.93,3.37,5.93,9.08ZM516.68,525.63c0,4.66,1.43,7.31,3.64,7.31,2.48,0,3.67-2.9,3.67-7.48s-1.13-7.31-3.64-7.31c-2.12,0-3.67,2.59-3.67,7.48Z"/>
      <path class="cls-5" d="M540.57,525.35c0,6.1-2.26,9.46-6.24,9.46-3.5,0-5.88-3.28-5.93-9.21,0-6.01,2.59-9.33,6.23-9.33s5.93,3.37,5.93,9.08ZM530.83,525.63c0,4.66,1.43,7.31,3.64,7.31,2.48,0,3.67-2.9,3.67-7.48s-1.13-7.31-3.64-7.31c-2.12,0-3.67,2.59-3.67,7.48Z"/>
      <path class="cls-5" d="M542,537.9c.61-1.63,1.35-4.58,1.66-6.59l2.7-.28c-.63,2.34-1.85,5.41-2.62,6.7l-1.74.17Z"/>
      <path class="cls-5" d="M555.76,532.8c.52.06,1.13,0,1.96-.08,1.41-.19,2.73-.77,3.75-1.74,1.19-1.08,2.04-2.65,2.37-4.77h-.08c-.99,1.21-2.43,1.93-4.22,1.93-3.23,0-5.3-2.43-5.3-5.49,0-3.39,2.46-6.37,6.12-6.37s5.93,2.98,5.93,7.56c0,3.94-1.32,6.7-3.09,8.41-1.38,1.35-3.28,2.18-5.21,2.4-.88.14-1.66.17-2.23.14v-1.99ZM556.64,522.48c0,2.23,1.35,3.81,3.45,3.81,1.63,0,2.9-.8,3.53-1.88.14-.22.22-.5.22-.88,0-3.06-1.13-5.41-3.67-5.41-2.07,0-3.53,1.82-3.53,4.36Z"/>
      <path class="cls-5" d="M568.5,534.51v-1.49l1.9-1.85c4.58-4.36,6.65-6.68,6.68-9.38,0-1.82-.88-3.5-3.56-3.5-1.63,0-2.98.83-3.81,1.52l-.77-1.71c1.24-1.05,3.01-1.82,5.08-1.82,3.86,0,5.49,2.65,5.49,5.21,0,3.31-2.4,5.99-6.18,9.63l-1.43,1.32v.05h8.06v2.01h-11.45Z"/>
      <path class="cls-5" d="M581.85,537.9c.61-1.63,1.35-4.58,1.66-6.59l2.7-.28c-.63,2.34-1.85,5.41-2.62,6.7l-1.74.17Z"/>
      <path class="cls-5" d="M594.79,531.72c.69.44,2.29,1.13,3.97,1.13,3.12,0,4.08-1.99,4.06-3.48-.03-2.51-2.29-3.59-4.63-3.59h-1.35v-1.82h1.35c1.77,0,4-.91,4-3.03,0-1.43-.91-2.7-3.15-2.7-1.43,0-2.81.63-3.59,1.19l-.63-1.77c.94-.69,2.76-1.38,4.69-1.38,3.53,0,5.13,2.1,5.13,4.28,0,1.85-1.1,3.42-3.31,4.22v.06c2.21.44,4,2.1,4,4.61,0,2.87-2.23,5.38-6.54,5.38-2.01,0-3.78-.63-4.66-1.21l.66-1.88Z"/>
      <path class="cls-5" d="M609.76,532.8c.52.06,1.13,0,1.96-.08,1.41-.19,2.73-.77,3.75-1.74,1.19-1.08,2.04-2.65,2.37-4.77h-.08c-.99,1.21-2.43,1.93-4.22,1.93-3.23,0-5.3-2.43-5.3-5.49,0-3.39,2.46-6.37,6.12-6.37s5.93,2.98,5.93,7.56c0,3.94-1.32,6.7-3.09,8.41-1.38,1.35-3.28,2.18-5.21,2.4-.88.14-1.66.17-2.23.14v-1.99ZM610.65,522.48c0,2.23,1.35,3.81,3.45,3.81,1.63,0,2.9-.8,3.53-1.88.14-.22.22-.5.22-.88,0-3.06-1.13-5.41-3.67-5.41-2.07,0-3.53,1.82-3.53,4.36Z"/>
      <path class="cls-5" d="M621.71,537.9c.61-1.63,1.35-4.58,1.66-6.59l2.7-.28c-.63,2.34-1.85,5.41-2.62,6.7l-1.74.17Z"/>
      <path class="cls-5" d="M634.64,531.72c.69.44,2.29,1.13,3.97,1.13,3.12,0,4.08-1.99,4.05-3.48-.03-2.51-2.29-3.59-4.63-3.59h-1.35v-1.82h1.35c1.77,0,4-.91,4-3.03,0-1.43-.91-2.7-3.14-2.7-1.43,0-2.81.63-3.59,1.19l-.63-1.77c.94-.69,2.76-1.38,4.69-1.38,3.53,0,5.13,2.1,5.13,4.28,0,1.85-1.1,3.42-3.31,4.22v.06c2.21.44,4,2.1,4,4.61,0,2.87-2.23,5.38-6.54,5.38-2.01,0-3.78-.63-4.66-1.21l.66-1.88Z"/>
      <path class="cls-5" d="M648.79,531.72c.69.44,2.29,1.13,3.97,1.13,3.12,0,4.08-1.99,4.06-3.48-.03-2.51-2.29-3.59-4.63-3.59h-1.35v-1.82h1.35c1.77,0,4-.91,4-3.03,0-1.43-.91-2.7-3.15-2.7-1.43,0-2.81.63-3.59,1.19l-.63-1.77c.94-.69,2.76-1.38,4.69-1.38,3.53,0,5.13,2.1,5.13,4.28,0,1.85-1.1,3.42-3.31,4.22v.06c2.21.44,4,2.1,4,4.61,0,2.87-2.23,5.38-6.54,5.38-2.01,0-3.78-.63-4.66-1.21l.66-1.88Z"/>
    </g>
    <g>
      <path class="cls-5" d="M400.67,474.54v7.78h8.99v-7.78h2.43v18.59h-2.43v-8.72h-8.99v8.72h-2.4v-18.59h2.4Z"/>
      <path class="cls-5" d="M415.92,490.21c1.08.66,2.65,1.21,4.3,1.21,2.46,0,3.89-1.3,3.89-3.17,0-1.74-.99-2.73-3.5-3.7-3.03-1.08-4.91-2.65-4.91-5.27,0-2.9,2.4-5.05,6.01-5.05,1.9,0,3.28.44,4.11.91l-.66,1.96c-.61-.33-1.85-.88-3.53-.88-2.54,0-3.5,1.52-3.5,2.79,0,1.74,1.13,2.59,3.7,3.59,3.15,1.21,4.75,2.73,4.75,5.46,0,2.87-2.12,5.35-6.51,5.35-1.79,0-3.75-.52-4.75-1.19l.61-2.01Z"/>
      <path class="cls-5" d="M429.85,474.79c1.05-.22,2.7-.39,4.39-.39,2.4,0,3.94.41,5.1,1.35.97.72,1.54,1.82,1.54,3.28,0,1.79-1.19,3.37-3.15,4.08v.05c1.77.44,3.83,1.9,3.83,4.66,0,1.6-.63,2.81-1.57,3.72-1.3,1.19-3.39,1.74-6.43,1.74-1.66,0-2.92-.11-3.72-.22v-18.29ZM432.25,482.41h2.18c2.54,0,4.03-1.32,4.03-3.12,0-2.18-1.66-3.03-4.08-3.03-1.1,0-1.74.08-2.12.17v5.99ZM432.25,491.32c.47.08,1.16.11,2.01.11,2.48,0,4.77-.91,4.77-3.61,0-2.54-2.18-3.59-4.8-3.59h-1.99v7.09Z"/>
      <path class="cls-5" d="M502.42,493.14v-1.49l1.9-1.85c4.58-4.36,6.65-6.68,6.68-9.38,0-1.82-.88-3.5-3.56-3.5-1.63,0-2.98.83-3.81,1.52l-.77-1.71c1.24-1.05,3.01-1.82,5.08-1.82,3.86,0,5.49,2.65,5.49,5.21,0,3.31-2.4,5.99-6.18,9.63l-1.43,1.32v.05h8.06v2.01h-11.45Z"/>
      <path class="cls-5" d="M516.57,493.14v-1.49l1.9-1.85c4.58-4.36,6.65-6.68,6.68-9.38,0-1.82-.88-3.5-3.56-3.5-1.63,0-2.98.83-3.81,1.52l-.77-1.71c1.24-1.05,3.01-1.82,5.08-1.82,3.86,0,5.49,2.65,5.49,5.21,0,3.31-2.4,5.99-6.18,9.63l-1.43,1.32v.05h8.06v2.01h-11.45Z"/>
      <path class="cls-5" d="M530.5,488.59c0-2.26,1.35-3.86,3.56-4.8l-.03-.08c-1.99-.94-2.84-2.48-2.84-4.03,0-2.84,2.4-4.77,5.54-4.77,3.48,0,5.21,2.18,5.21,4.41,0,1.52-.75,3.15-2.95,4.19v.08c2.23.88,3.61,2.46,3.61,4.63,0,3.12-2.68,5.21-6.1,5.21-3.75,0-6.01-2.23-6.01-4.86ZM540.15,488.48c0-2.18-1.52-3.23-3.94-3.92-2.1.61-3.23,1.99-3.23,3.7-.08,1.82,1.3,3.42,3.59,3.42s3.59-1.35,3.59-3.2ZM533.48,479.51c0,1.79,1.35,2.76,3.42,3.31,1.54-.52,2.73-1.63,2.73-3.26,0-1.43-.85-2.92-3.03-2.92-2.01,0-3.12,1.32-3.12,2.87Z"/>
      <path class="cls-5" d="M544.07,496.53c.61-1.63,1.35-4.58,1.66-6.59l2.7-.28c-.63,2.34-1.85,5.41-2.62,6.7l-1.74.17Z"/>
      <path class="cls-5" d="M556.2,488.59c0-2.26,1.35-3.86,3.56-4.8l-.03-.08c-1.99-.94-2.84-2.48-2.84-4.03,0-2.84,2.4-4.77,5.55-4.77,3.48,0,5.21,2.18,5.21,4.41,0,1.52-.75,3.15-2.95,4.19v.08c2.24.88,3.61,2.46,3.61,4.63,0,3.12-2.68,5.21-6.1,5.21-3.75,0-6.01-2.23-6.01-4.86ZM565.86,488.48c0-2.18-1.52-3.23-3.95-3.92-2.1.61-3.23,1.99-3.23,3.7-.08,1.82,1.3,3.42,3.59,3.42s3.59-1.35,3.59-3.2ZM559.18,479.51c0,1.79,1.35,2.76,3.42,3.31,1.54-.52,2.73-1.63,2.73-3.26,0-1.43-.86-2.92-3.03-2.92-2.01,0-3.12,1.32-3.12,2.87Z"/>
      <path class="cls-5" d="M571.15,490.35c.69.44,2.29,1.13,3.97,1.13,3.12,0,4.08-1.99,4.06-3.48-.03-2.51-2.29-3.59-4.63-3.59h-1.35v-1.82h1.35c1.77,0,4-.91,4-3.03,0-1.43-.91-2.7-3.15-2.7-1.43,0-2.81.63-3.59,1.19l-.63-1.77c.94-.69,2.76-1.38,4.69-1.38,3.53,0,5.13,2.1,5.13,4.28,0,1.85-1.1,3.42-3.31,4.22v.06c2.21.44,4,2.1,4,4.61,0,2.87-2.23,5.38-6.54,5.38-2.01,0-3.78-.63-4.66-1.21l.66-1.88Z"/>
      <path class="cls-5" d="M592.8,480.26c0,3.78-1.99,5.66-4.3,5.66s-4.17-1.79-4.19-5.41c0-3.59,1.96-5.6,4.33-5.6,2.51,0,4.17,1.93,4.17,5.35ZM586.24,480.42c-.06,2.29.8,4.03,2.32,4.03,1.6,0,2.32-1.71,2.32-4.08,0-2.18-.63-4-2.32-4-1.52,0-2.32,1.79-2.32,4.06ZM588.33,493.44l10.54-18.54h1.54l-10.54,18.54h-1.54ZM604.47,487.68c0,3.78-1.99,5.66-4.28,5.66s-4.17-1.79-4.19-5.38c0-3.61,1.96-5.63,4.33-5.63,2.51,0,4.14,1.93,4.14,5.35ZM597.91,487.84c-.03,2.29.85,4.03,2.34,4.03,1.6,0,2.32-1.71,2.32-4.08,0-2.18-.63-4-2.32-4-1.52,0-2.34,1.79-2.34,4.06Z"/>
      <path class="cls-5" d="M605.76,496.53c.61-1.63,1.35-4.58,1.66-6.59l2.7-.28c-.63,2.34-1.85,5.41-2.62,6.7l-1.74.17Z"/>
      <path class="cls-5" d="M618.7,490.35c.69.44,2.29,1.13,3.97,1.13,3.12,0,4.08-1.99,4.05-3.48-.03-2.51-2.29-3.59-4.63-3.59h-1.35v-1.82h1.35c1.77,0,4-.91,4-3.03,0-1.43-.91-2.7-3.14-2.7-1.43,0-2.81.63-3.59,1.19l-.63-1.77c.94-.69,2.76-1.38,4.69-1.38,3.53,0,5.13,2.1,5.13,4.28,0,1.85-1.1,3.42-3.31,4.22v.06c2.21.44,4,2.1,4,4.61,0,2.87-2.23,5.38-6.54,5.38-2.01,0-3.78-.63-4.66-1.21l.66-1.88Z"/>
      <path class="cls-5" d="M639.77,493.14v-4.88h-8.33v-1.6l8-11.45h2.62v11.15h2.51v1.9h-2.51v4.88h-2.29ZM639.77,486.35v-5.99c0-.94.03-1.88.08-2.81h-.08c-.55,1.05-.99,1.82-1.49,2.65l-4.39,6.1v.06h5.88Z"/>
      <path class="cls-5" d="M654.5,480.26c0,3.78-1.99,5.66-4.3,5.66s-4.17-1.79-4.19-5.41c0-3.59,1.96-5.6,4.33-5.6,2.51,0,4.17,1.93,4.17,5.35ZM647.94,480.42c-.05,2.29.8,4.03,2.32,4.03,1.6,0,2.32-1.71,2.32-4.08,0-2.18-.63-4-2.32-4-1.52,0-2.32,1.79-2.32,4.06ZM650.03,493.44l10.54-18.54h1.54l-10.54,18.54h-1.54ZM666.17,487.68c0,3.78-1.99,5.66-4.28,5.66s-4.17-1.79-4.19-5.38c0-3.61,1.96-5.63,4.33-5.63,2.51,0,4.14,1.93,4.14,5.35ZM659.61,487.84c-.03,2.29.86,4.03,2.34,4.03,1.6,0,2.32-1.71,2.32-4.08,0-2.18-.63-4-2.32-4-1.52,0-2.34,1.79-2.34,4.06Z"/>
    </g>
    <g>
      <path class="cls-5" d="M398.27,433.42c1.21-.25,2.95-.39,4.61-.39,2.57,0,4.22.47,5.38,1.52.94.83,1.46,2.1,1.46,3.53,0,2.46-1.54,4.08-3.5,4.75v.08c1.43.5,2.29,1.82,2.73,3.75.61,2.59,1.05,4.39,1.43,5.1h-2.48c-.3-.52-.72-2.12-1.24-4.44-.55-2.57-1.54-3.53-3.72-3.61h-2.26v8.06h-2.4v-18.35ZM400.67,441.89h2.46c2.57,0,4.19-1.41,4.19-3.53,0-2.4-1.74-3.45-4.28-3.48-1.16,0-1.99.11-2.37.22v6.79Z"/>
      <path class="cls-5" d="M427.35,450.94c-1.08.39-3.2,1.02-5.71,1.02-2.81,0-5.13-.72-6.95-2.46-1.6-1.54-2.59-4.03-2.59-6.92.03-5.54,3.83-9.6,10.07-9.6,2.15,0,3.83.47,4.63.86l-.58,1.96c-.99-.44-2.23-.8-4.11-.8-4.52,0-7.48,2.81-7.48,7.48s2.84,7.5,7.17,7.5c1.57,0,2.65-.22,3.2-.5v-5.55h-3.78v-1.93h6.12v8.94Z"/>
      <path class="cls-5" d="M431.01,433.42c1.05-.22,2.7-.39,4.39-.39,2.4,0,3.94.41,5.1,1.35.97.72,1.54,1.82,1.54,3.28,0,1.79-1.19,3.37-3.15,4.08v.05c1.77.44,3.83,1.9,3.83,4.66,0,1.6-.63,2.81-1.57,3.72-1.3,1.19-3.39,1.74-6.43,1.74-1.66,0-2.92-.11-3.72-.22v-18.29ZM433.41,441.03h2.18c2.54,0,4.03-1.32,4.03-3.12,0-2.18-1.66-3.03-4.08-3.03-1.1,0-1.74.08-2.12.17v5.99ZM433.41,449.95c.47.08,1.16.11,2.01.11,2.48,0,4.77-.91,4.77-3.61,0-2.54-2.18-3.59-4.8-3.59h-1.99v7.09Z"/>
      <path class="cls-5" d="M508.85,436.1h-.06l-3.12,1.68-.47-1.85,3.92-2.1h2.07v17.93h-2.34v-15.67Z"/>
      <path class="cls-5" d="M528.43,435.88h-6.84l-.69,4.61c.41-.05.8-.11,1.46-.11,1.38,0,2.76.3,3.86.97,1.41.8,2.57,2.34,2.57,4.61,0,3.5-2.79,6.12-6.68,6.12-1.96,0-3.61-.55-4.47-1.1l.61-1.85c.74.44,2.21.99,3.83.99,2.29,0,4.25-1.49,4.25-3.89-.03-2.32-1.57-3.97-5.16-3.97-1.02,0-1.82.11-2.48.19l1.16-8.61h8.58v2.04Z"/>
      <path class="cls-5" d="M531.07,455.16c.61-1.63,1.35-4.58,1.66-6.59l2.7-.28c-.63,2.34-1.85,5.41-2.62,6.7l-1.74.17Z"/>
      <path class="cls-5" d="M544.01,448.98c.69.44,2.29,1.13,3.97,1.13,3.12,0,4.08-1.99,4.06-3.48-.03-2.51-2.29-3.59-4.63-3.59h-1.35v-1.82h1.35c1.77,0,4-.91,4-3.03,0-1.43-.91-2.7-3.15-2.7-1.43,0-2.81.63-3.59,1.19l-.63-1.77c.94-.69,2.76-1.38,4.69-1.38,3.53,0,5.13,2.1,5.13,4.28,0,1.85-1.1,3.42-3.31,4.22v.06c2.21.44,4,2.1,4,4.61,0,2.87-2.23,5.38-6.54,5.38-2.01,0-3.78-.63-4.66-1.21l.66-1.88Z"/>
      <path class="cls-5" d="M569.5,442.61c0,6.1-2.26,9.46-6.23,9.46-3.5,0-5.88-3.28-5.93-9.21,0-6.01,2.59-9.33,6.23-9.33s5.93,3.37,5.93,9.08ZM559.76,442.88c0,4.66,1.43,7.31,3.64,7.31,2.48,0,3.67-2.9,3.67-7.48s-1.13-7.31-3.64-7.31c-2.12,0-3.67,2.59-3.67,7.48Z"/>
      <path class="cls-5" d="M570.93,455.16c.61-1.63,1.35-4.58,1.66-6.59l2.7-.28c-.63,2.34-1.85,5.41-2.62,6.7l-1.74.17Z"/>
      <path class="cls-5" d="M583.06,447.21c0-2.26,1.35-3.86,3.56-4.8l-.03-.08c-1.99-.94-2.84-2.48-2.84-4.03,0-2.84,2.4-4.77,5.55-4.77,3.48,0,5.21,2.18,5.21,4.41,0,1.52-.75,3.15-2.95,4.19v.08c2.24.88,3.61,2.46,3.61,4.63,0,3.12-2.68,5.21-6.1,5.21-3.75,0-6.01-2.23-6.01-4.86ZM592.72,447.1c0-2.18-1.52-3.23-3.95-3.92-2.1.61-3.23,1.99-3.23,3.7-.08,1.82,1.3,3.42,3.59,3.42s3.59-1.35,3.59-3.2ZM586.04,438.14c0,1.79,1.35,2.76,3.42,3.31,1.54-.52,2.73-1.63,2.73-3.26,0-1.43-.86-2.92-3.03-2.92-2.01,0-3.12,1.32-3.12,2.87Z"/>
      <path class="cls-5" d="M609.08,433.83v1.6l-7.81,16.33h-2.51l7.78-15.86v-.06h-8.77v-2.01h11.31Z"/>
    </g>
    <g>
      <path class="cls-5" d="M407.9,401.68h-7.23v6.7h8.06v2.01h-10.46v-18.59h10.04v2.01h-7.64v5.88h7.23v1.99Z"/>
      <path class="cls-5" d="M411.43,407.91c.72.47,1.99.97,3.2.97,1.77,0,2.59-.88,2.59-1.99,0-1.16-.69-1.79-2.48-2.46-2.4-.85-3.53-2.18-3.53-3.78,0-2.15,1.74-3.92,4.61-3.92,1.35,0,2.54.39,3.28.83l-.61,1.77c-.52-.33-1.49-.77-2.73-.77-1.43,0-2.23.83-2.23,1.82,0,1.1.8,1.6,2.54,2.26,2.32.88,3.5,2.04,3.5,4.03,0,2.34-1.82,4-4.99,4-1.46,0-2.81-.36-3.75-.91l.61-1.85Z"/>
      <path class="cls-5" d="M430.08,410.39l-.19-1.68h-.08c-.74,1.05-2.18,1.99-4.08,1.99-2.7,0-4.08-1.9-4.08-3.83,0-3.23,2.87-4.99,8.03-4.97v-.28c0-1.1-.3-3.09-3.03-3.09-1.24,0-2.54.39-3.48.99l-.55-1.6c1.1-.72,2.7-1.19,4.39-1.19,4.08,0,5.08,2.79,5.08,5.46v4.99c0,1.16.05,2.29.22,3.2h-2.21ZM429.72,403.58c-2.65-.06-5.66.41-5.66,3.01,0,1.57,1.05,2.32,2.29,2.32,1.74,0,2.84-1.1,3.23-2.23.08-.25.14-.52.14-.77v-2.32Z"/>
      <path class="cls-5" d="M495,410.39l.72-5.41h-2.26v-1.63h2.51l.52-4h-2.37v-1.63h2.62l.72-5.27h1.6l-.69,5.27h2.87l.72-5.27h1.63l-.69,5.27h2.26v1.63h-2.51l-.5,4h2.37v1.63h-2.62l-.72,5.41h-1.66l.72-5.41h-2.87l-.72,5.41h-1.66ZM500.49,403.36l.52-4h-2.87l-.52,4h2.87Z"/>
      <path class="cls-5" d="M519.3,401.23c0,6.1-2.26,9.46-6.24,9.46-3.5,0-5.88-3.28-5.93-9.21,0-6.01,2.59-9.33,6.23-9.33s5.93,3.37,5.93,9.08ZM509.56,401.51c0,4.66,1.43,7.31,3.64,7.31,2.48,0,3.67-2.9,3.67-7.48s-1.13-7.31-3.64-7.31c-2.12,0-3.67,2.59-3.67,7.48Z"/>
      <path class="cls-5" d="M522.39,391.8h10.01v2.01h-7.61v6.18h7.04v1.99h-7.04v8.41h-2.4v-18.59Z"/>
      <path class="cls-5" d="M540.23,394.72h-.06l-3.12,1.68-.47-1.85,3.92-2.1h2.07v17.93h-2.34v-15.67Z"/>
      <path class="cls-5" d="M559.6,401.68h-7.23v6.7h8.06v2.01h-10.46v-18.59h10.04v2.01h-7.64v5.88h7.23v1.99Z"/>
      <path class="cls-5" d="M573.39,394.5h-6.84l-.69,4.61c.41-.05.8-.11,1.46-.11,1.38,0,2.76.3,3.86.97,1.41.8,2.57,2.34,2.57,4.61,0,3.5-2.79,6.12-6.68,6.12-1.96,0-3.61-.55-4.47-1.1l.61-1.85c.75.44,2.21.99,3.83.99,2.29,0,4.25-1.49,4.25-3.89-.03-2.32-1.57-3.97-5.16-3.97-1.02,0-1.82.11-2.48.19l1.16-8.61h8.58v2.04Z"/>
      <path class="cls-5" d="M588.48,392.46v1.6l-7.81,16.33h-2.51l7.78-15.86v-.06h-8.77v-2.01h11.31Z"/>
    </g>
    <g>
      <path class="cls-5" d="M398.48,348.84c1.15-.24,2.97-.42,4.82-.42,2.64,0,4.34.46,5.61,1.49,1.06.79,1.7,2,1.7,3.61,0,1.97-1.3,3.7-3.46,4.49v.06c1.94.49,4.22,2.09,4.22,5.13,0,1.76-.7,3.09-1.73,4.1-1.43,1.3-3.73,1.91-7.07,1.91-1.82,0-3.22-.12-4.09-.24v-20.11ZM401.12,357.22h2.4c2.79,0,4.43-1.46,4.43-3.43,0-2.4-1.82-3.34-4.49-3.34-1.21,0-1.91.09-2.34.18v6.58ZM401.12,367.02c.52.09,1.27.12,2.21.12,2.73,0,5.25-1,5.25-3.97,0-2.79-2.4-3.94-5.28-3.94h-2.18v7.8Z"/>
      <path class="cls-5" d="M414.92,348.57h2.64v18.23h8.74v2.21h-11.38v-20.45Z"/>
      <path class="cls-5" d="M430.79,348.57v12.1c0,4.58,2.03,6.52,4.76,6.52,3.03,0,4.98-2,4.98-6.52v-12.1h2.67v11.92c0,6.28-3.31,8.86-7.73,8.86-4.19,0-7.34-2.4-7.34-8.74v-12.04h2.67Z"/>
      <path class="cls-5" d="M468.5,368.35c-.97.49-2.91.97-5.4.97-5.76,0-10.1-3.64-10.1-10.34s4.34-10.74,10.68-10.74c2.55,0,4.16.55,4.85.91l-.64,2.15c-1-.49-2.43-.85-4.13-.85-4.79,0-7.98,3.06-7.98,8.43,0,5.01,2.88,8.22,7.86,8.22,1.61,0,3.25-.33,4.31-.85l.55,2.09Z"/>
      <path class="cls-5" d="M471.81,348.84c1.15-.24,2.97-.42,4.82-.42,2.64,0,4.34.46,5.61,1.49,1.06.79,1.7,2,1.7,3.61,0,1.97-1.3,3.7-3.46,4.49v.06c1.94.49,4.22,2.09,4.22,5.13,0,1.76-.7,3.09-1.73,4.1-1.43,1.3-3.73,1.91-7.07,1.91-1.82,0-3.22-.12-4.09-.24v-20.11ZM474.45,357.22h2.4c2.79,0,4.43-1.46,4.43-3.43,0-2.4-1.82-3.34-4.49-3.34-1.21,0-1.91.09-2.34.18v6.58ZM474.45,367.02c.52.09,1.27.12,2.21.12,2.73,0,5.25-1,5.25-3.97,0-2.79-2.4-3.94-5.28-3.94h-2.18v7.8Z"/>
      <path class="cls-5" d="M488.25,369.02v-20.45h2.88l6.55,10.34c1.52,2.4,2.7,4.55,3.67,6.64l.06-.03c-.24-2.73-.3-5.22-.3-8.4v-8.55h2.49v20.45h-2.67l-6.49-10.37c-1.43-2.27-2.79-4.61-3.82-6.83l-.09.03c.15,2.58.21,5.04.21,8.43v8.74h-2.49Z"/>
    </g>
    <rect class="cls-5" x="396.17" y="51.82" width="275.82" height="275.82"/>
  </g>
  <g>
    <rect class="cls-3" x="26.57" y="29.76" width="319.95" height="526.82"/>
    <line class="cls-2" x1="48.64" y1="377.29" x2="324.46" y2="377.29"/>
    <g>
      <path class="cls-5" d="M63.73,533.9c-.88.44-2.65.88-4.91.88-5.24,0-9.19-3.31-9.19-9.41s3.95-9.77,9.71-9.77c2.32,0,3.78.5,4.41.83l-.58,1.96c-.91-.44-2.21-.77-3.75-.77-4.36,0-7.26,2.79-7.26,7.67,0,4.55,2.62,7.48,7.15,7.48,1.46,0,2.95-.3,3.92-.77l.5,1.9Z"/>
      <path class="cls-5" d="M82.4,526.34c-.14-2.59-.3-5.71-.28-8.03h-.08c-.63,2.18-1.41,4.5-2.35,7.06l-3.28,9.02h-1.82l-3.01-8.86c-.88-2.62-1.63-5.02-2.15-7.23h-.06c-.06,2.32-.19,5.43-.36,8.22l-.5,7.97h-2.29l1.3-18.59h3.06l3.17,8.99c.77,2.29,1.41,4.33,1.88,6.26h.08c.47-1.88,1.13-3.92,1.96-6.26l3.31-8.99h3.06l1.16,18.59h-2.35l-.47-8.17Z"/>
      <path class="cls-5" d="M93.05,534.51v-7.89l-5.88-10.7h2.73l2.62,5.13c.72,1.41,1.27,2.54,1.85,3.83h.06c.52-1.21,1.16-2.43,1.88-3.83l2.68-5.13h2.73l-6.23,10.68v7.92h-2.43Z"/>
      <path class="cls-5" d="M103.64,515.92h2.4v8.97h.08c.5-.72.99-1.38,1.46-1.99l5.68-6.98h2.98l-6.73,7.89,7.26,10.7h-2.84l-6.12-9.13-1.77,2.04v7.09h-2.4v-18.59Z"/>
      <path class="cls-5" d="M164.73,525.35c0,6.1-2.26,9.46-6.23,9.46-3.5,0-5.88-3.28-5.93-9.21,0-6.01,2.59-9.33,6.23-9.33s5.93,3.37,5.93,9.08ZM154.99,525.63c0,4.66,1.43,7.31,3.64,7.31,2.48,0,3.67-2.9,3.67-7.48s-1.13-7.31-3.64-7.31c-2.12,0-3.67,2.59-3.67,7.48Z"/>
      <path class="cls-5" d="M166.16,537.9c.61-1.63,1.35-4.58,1.66-6.59l2.7-.28c-.63,2.34-1.85,5.41-2.62,6.7l-1.74.17Z"/>
      <path class="cls-5" d="M190.16,516.58v1.6l-7.81,16.33h-2.51l7.78-15.86v-.06h-8.77v-2.01h11.31Z"/>
      <path class="cls-5" d="M192.67,534.51v-1.49l1.9-1.85c4.58-4.36,6.65-6.68,6.68-9.38,0-1.82-.88-3.5-3.56-3.5-1.63,0-2.98.83-3.81,1.52l-.77-1.71c1.24-1.05,3.01-1.82,5.08-1.82,3.86,0,5.49,2.65,5.49,5.21,0,3.31-2.4,5.99-6.18,9.63l-1.43,1.32v.05h8.06v2.01h-11.45Z"/>
      <path class="cls-5" d="M206.02,537.9c.61-1.63,1.35-4.58,1.66-6.59l2.7-.28c-.63,2.34-1.85,5.41-2.62,6.7l-1.74.17Z"/>
      <path class="cls-5" d="M219.78,532.8c.52.06,1.13,0,1.96-.08,1.41-.19,2.73-.77,3.75-1.74,1.19-1.08,2.04-2.65,2.37-4.77h-.08c-.99,1.21-2.43,1.93-4.22,1.93-3.23,0-5.3-2.43-5.3-5.49,0-3.39,2.46-6.37,6.12-6.37s5.93,2.98,5.93,7.56c0,3.94-1.32,6.7-3.09,8.41-1.38,1.35-3.28,2.18-5.21,2.4-.88.14-1.66.17-2.23.14v-1.99ZM220.66,522.48c0,2.23,1.35,3.81,3.45,3.81,1.63,0,2.9-.8,3.53-1.88.14-.22.22-.5.22-.88,0-3.06-1.13-5.41-3.67-5.41-2.07,0-3.53,1.82-3.53,4.36Z"/>
      <path class="cls-5" d="M243.23,518.62h-6.84l-.69,4.61c.41-.05.8-.11,1.46-.11,1.38,0,2.76.3,3.86.97,1.41.8,2.57,2.34,2.57,4.61,0,3.5-2.79,6.12-6.68,6.12-1.96,0-3.61-.55-4.47-1.1l.61-1.85c.74.44,2.21.99,3.83.99,2.29,0,4.25-1.49,4.25-3.89-.03-2.32-1.57-3.97-5.16-3.97-1.02,0-1.82.11-2.48.19l1.16-8.61h8.58v2.04Z"/>
      <path class="cls-5" d="M245.87,537.9c.61-1.63,1.35-4.58,1.66-6.59l2.7-.28c-.63,2.34-1.85,5.41-2.62,6.7l-1.74.17Z"/>
      <path class="cls-5" d="M270.15,525.35c0,6.1-2.26,9.46-6.23,9.46-3.5,0-5.88-3.28-5.93-9.21,0-6.01,2.59-9.33,6.23-9.33s5.93,3.37,5.93,9.08ZM260.41,525.63c0,4.66,1.43,7.31,3.64,7.31,2.48,0,3.67-2.9,3.67-7.48s-1.13-7.31-3.64-7.31c-2.12,0-3.67,2.59-3.67,7.48Z"/>
    </g>
    <g>
      <path class="cls-5" d="M53.14,474.54v7.78h8.99v-7.78h2.43v18.59h-2.43v-8.72h-8.99v8.72h-2.4v-18.59h2.4Z"/>
      <path class="cls-5" d="M68.39,490.21c1.08.66,2.65,1.21,4.3,1.21,2.46,0,3.89-1.3,3.89-3.17,0-1.74-.99-2.73-3.5-3.7-3.03-1.08-4.91-2.65-4.91-5.27,0-2.9,2.4-5.05,6.01-5.05,1.9,0,3.28.44,4.11.91l-.66,1.96c-.61-.33-1.85-.88-3.53-.88-2.54,0-3.5,1.52-3.5,2.79,0,1.74,1.13,2.59,3.7,3.59,3.15,1.21,4.75,2.73,4.75,5.46,0,2.87-2.12,5.35-6.51,5.35-1.79,0-3.75-.52-4.75-1.19l.61-2.01Z"/>
      <path class="cls-5" d="M82.32,474.79c1.05-.22,2.7-.39,4.39-.39,2.4,0,3.94.41,5.1,1.35.97.72,1.54,1.82,1.54,3.28,0,1.79-1.19,3.37-3.15,4.08v.05c1.77.44,3.83,1.9,3.83,4.66,0,1.6-.63,2.81-1.57,3.72-1.3,1.19-3.39,1.74-6.43,1.74-1.66,0-2.92-.11-3.72-.22v-18.29ZM84.72,482.41h2.18c2.54,0,4.03-1.32,4.03-3.12,0-2.18-1.66-3.03-4.08-3.03-1.1,0-1.74.08-2.12.17v5.99ZM84.72,491.32c.47.08,1.16.11,2.01.11,2.48,0,4.77-.91,4.77-3.61,0-2.54-2.18-3.59-4.8-3.59h-1.99v7.09Z"/>
      <path class="cls-5" d="M154.88,493.14v-1.49l1.9-1.85c4.58-4.36,6.65-6.68,6.68-9.38,0-1.82-.88-3.5-3.56-3.5-1.63,0-2.98.83-3.81,1.52l-.77-1.71c1.24-1.05,3.01-1.82,5.08-1.82,3.86,0,5.49,2.65,5.49,5.21,0,3.31-2.4,5.99-6.18,9.63l-1.43,1.32v.05h8.06v2.01h-11.45Z"/>
      <path class="cls-5" d="M169.61,490.35c.69.44,2.29,1.13,3.97,1.13,3.12,0,4.08-1.99,4.06-3.48-.03-2.51-2.29-3.59-4.63-3.59h-1.35v-1.82h1.35c1.77,0,4-.91,4-3.03,0-1.43-.91-2.7-3.15-2.7-1.43,0-2.81.63-3.59,1.19l-.63-1.77c.94-.69,2.76-1.38,4.69-1.38,3.53,0,5.13,2.1,5.13,4.28,0,1.85-1.1,3.42-3.31,4.22v.06c2.21.44,4,2.1,4,4.61,0,2.87-2.23,5.38-6.54,5.38-2.01,0-3.78-.63-4.66-1.21l.66-1.88Z"/>
      <path class="cls-5" d="M182.38,496.53c.61-1.63,1.35-4.58,1.66-6.59l2.7-.28c-.63,2.34-1.85,5.41-2.62,6.7l-1.74.17Z"/>
      <path class="cls-5" d="M196.14,491.43c.52.06,1.13,0,1.96-.08,1.41-.19,2.73-.77,3.75-1.74,1.19-1.08,2.04-2.65,2.37-4.77h-.08c-.99,1.21-2.43,1.93-4.22,1.93-3.23,0-5.3-2.43-5.3-5.49,0-3.39,2.46-6.37,6.12-6.37s5.93,2.98,5.93,7.56c0,3.94-1.32,6.7-3.09,8.41-1.38,1.35-3.28,2.18-5.21,2.4-.88.14-1.66.17-2.23.14v-1.99ZM197.03,481.11c0,2.23,1.35,3.81,3.45,3.81,1.63,0,2.9-.8,3.53-1.88.14-.22.22-.5.22-.88,0-3.06-1.13-5.41-3.67-5.41-2.07,0-3.53,1.82-3.53,4.36Z"/>
      <path class="cls-5" d="M208.67,488.59c0-2.26,1.35-3.86,3.56-4.8l-.03-.08c-1.99-.94-2.84-2.48-2.84-4.03,0-2.84,2.4-4.77,5.55-4.77,3.48,0,5.21,2.18,5.21,4.41,0,1.52-.75,3.15-2.95,4.19v.08c2.23.88,3.61,2.46,3.61,4.63,0,3.12-2.68,5.21-6.1,5.21-3.75,0-6.01-2.23-6.01-4.86ZM218.32,488.48c0-2.18-1.52-3.23-3.95-3.92-2.1.61-3.23,1.99-3.23,3.7-.08,1.82,1.3,3.42,3.59,3.42s3.59-1.35,3.59-3.2ZM211.65,479.51c0,1.79,1.35,2.76,3.42,3.31,1.54-.52,2.73-1.63,2.73-3.26,0-1.43-.86-2.92-3.03-2.92-2.01,0-3.12,1.32-3.12,2.87Z"/>
      <path class="cls-5" d="M231.12,480.26c0,3.78-1.99,5.66-4.3,5.66s-4.17-1.79-4.19-5.41c0-3.59,1.96-5.6,4.33-5.6,2.51,0,4.17,1.93,4.17,5.35ZM224.55,480.42c-.06,2.29.8,4.03,2.32,4.03,1.6,0,2.32-1.71,2.32-4.08,0-2.18-.63-4-2.32-4-1.52,0-2.32,1.79-2.32,4.06ZM226.65,493.44l10.54-18.54h1.54l-10.54,18.54h-1.54ZM242.79,487.68c0,3.78-1.99,5.66-4.28,5.66s-4.17-1.79-4.19-5.38c0-3.61,1.96-5.63,4.33-5.63,2.51,0,4.14,1.93,4.14,5.35ZM236.22,487.84c-.03,2.29.86,4.03,2.35,4.03,1.6,0,2.32-1.71,2.32-4.08,0-2.18-.63-4-2.32-4-1.52,0-2.35,1.79-2.35,4.06Z"/>
      <path class="cls-5" d="M244.08,496.53c.61-1.63,1.35-4.58,1.66-6.59l2.7-.28c-.63,2.34-1.85,5.41-2.62,6.7l-1.74.17Z"/>
      <path class="cls-5" d="M257.84,491.43c.52.06,1.13,0,1.96-.08,1.41-.19,2.73-.77,3.75-1.74,1.19-1.08,2.04-2.65,2.37-4.77h-.08c-.99,1.21-2.43,1.93-4.22,1.93-3.23,0-5.3-2.43-5.3-5.49,0-3.39,2.46-6.37,6.12-6.37s5.93,2.98,5.93,7.56c0,3.94-1.32,6.7-3.09,8.41-1.38,1.35-3.28,2.18-5.21,2.4-.88.14-1.66.17-2.23.14v-1.99ZM258.73,481.11c0,2.23,1.35,3.81,3.45,3.81,1.63,0,2.9-.8,3.53-1.88.14-.22.22-.5.22-.88,0-3.06-1.13-5.41-3.67-5.41-2.07,0-3.53,1.82-3.53,4.36Z"/>
      <path class="cls-5" d="M270.37,488.59c0-2.26,1.35-3.86,3.56-4.8l-.03-.08c-1.99-.94-2.84-2.48-2.84-4.03,0-2.84,2.4-4.77,5.55-4.77,3.48,0,5.21,2.18,5.21,4.41,0,1.52-.75,3.15-2.95,4.19v.08c2.23.88,3.61,2.46,3.61,4.63,0,3.12-2.68,5.21-6.1,5.21-3.75,0-6.01-2.23-6.01-4.86ZM280.02,488.48c0-2.18-1.52-3.23-3.95-3.92-2.1.61-3.23,1.99-3.23,3.7-.08,1.82,1.3,3.42,3.59,3.42s3.59-1.35,3.59-3.2ZM273.34,479.51c0,1.79,1.35,2.76,3.42,3.31,1.54-.52,2.73-1.63,2.73-3.26,0-1.43-.86-2.92-3.03-2.92-2.01,0-3.12,1.32-3.12,2.87Z"/>
      <path class="cls-5" d="M292.82,480.26c0,3.78-1.99,5.66-4.3,5.66s-4.17-1.79-4.19-5.41c0-3.59,1.96-5.6,4.33-5.6,2.51,0,4.17,1.93,4.17,5.35ZM286.25,480.42c-.06,2.29.8,4.03,2.32,4.03,1.6,0,2.32-1.71,2.32-4.08,0-2.18-.63-4-2.32-4-1.52,0-2.32,1.79-2.32,4.06ZM288.35,493.44l10.54-18.54h1.54l-10.54,18.54h-1.54ZM304.49,487.68c0,3.78-1.99,5.66-4.28,5.66s-4.17-1.79-4.19-5.38c0-3.61,1.96-5.63,4.33-5.63,2.51,0,4.14,1.93,4.14,5.35ZM297.92,487.84c-.03,2.29.85,4.03,2.34,4.03,1.6,0,2.32-1.71,2.32-4.08,0-2.18-.63-4-2.32-4-1.52,0-2.34,1.79-2.34,4.06Z"/>
    </g>
    <g>
      <path class="cls-5" d="M50.74,433.42c1.21-.25,2.95-.39,4.61-.39,2.57,0,4.22.47,5.38,1.52.94.83,1.46,2.1,1.46,3.53,0,2.46-1.54,4.08-3.5,4.75v.08c1.43.5,2.29,1.82,2.73,3.75.61,2.59,1.05,4.39,1.43,5.1h-2.48c-.3-.52-.72-2.12-1.24-4.44-.55-2.57-1.54-3.53-3.72-3.61h-2.26v8.06h-2.4v-18.35ZM53.14,441.89h2.46c2.57,0,4.19-1.41,4.19-3.53,0-2.4-1.74-3.45-4.28-3.48-1.16,0-1.99.11-2.37.22v6.79Z"/>
      <path class="cls-5" d="M79.81,450.94c-1.08.39-3.2,1.02-5.71,1.02-2.81,0-5.13-.72-6.95-2.46-1.6-1.54-2.59-4.03-2.59-6.92.03-5.54,3.83-9.6,10.07-9.6,2.15,0,3.83.47,4.63.86l-.58,1.96c-.99-.44-2.23-.8-4.11-.8-4.52,0-7.48,2.81-7.48,7.48s2.84,7.5,7.17,7.5c1.57,0,2.65-.22,3.2-.5v-5.55h-3.78v-1.93h6.12v8.94Z"/>
      <path class="cls-5" d="M83.48,433.42c1.05-.22,2.7-.39,4.39-.39,2.4,0,3.94.41,5.1,1.35.97.72,1.54,1.82,1.54,3.28,0,1.79-1.19,3.37-3.15,4.08v.05c1.77.44,3.83,1.9,3.83,4.66,0,1.6-.63,2.81-1.57,3.72-1.3,1.19-3.39,1.74-6.43,1.74-1.66,0-2.92-.11-3.72-.22v-18.29ZM85.88,441.03h2.18c2.54,0,4.03-1.32,4.03-3.12,0-2.18-1.66-3.03-4.08-3.03-1.1,0-1.74.08-2.12.17v5.99ZM85.88,449.95c.47.08,1.16.11,2.01.11,2.48,0,4.77-.91,4.77-3.61,0-2.54-2.18-3.59-4.8-3.59h-1.99v7.09Z"/>
      <path class="cls-5" d="M156.04,451.77v-1.49l1.9-1.85c4.58-4.36,6.65-6.68,6.68-9.38,0-1.82-.88-3.5-3.56-3.5-1.63,0-2.98.83-3.81,1.52l-.77-1.71c1.24-1.05,3.01-1.82,5.08-1.82,3.86,0,5.49,2.65,5.49,5.21,0,3.31-2.4,5.99-6.18,9.63l-1.43,1.32v.05h8.06v2.01h-11.45Z"/>
      <path class="cls-5" d="M180.89,435.88h-6.84l-.69,4.61c.41-.05.8-.11,1.46-.11,1.38,0,2.76.3,3.86.97,1.41.8,2.57,2.34,2.57,4.61,0,3.5-2.79,6.12-6.68,6.12-1.96,0-3.61-.55-4.47-1.1l.61-1.85c.74.44,2.21.99,3.83.99,2.29,0,4.25-1.49,4.25-3.89-.03-2.32-1.57-3.97-5.16-3.97-1.02,0-1.82.11-2.48.19l1.16-8.61h8.58v2.04Z"/>
      <path class="cls-5" d="M189.61,436.1h-.06l-3.12,1.68-.47-1.85,3.92-2.1h2.07v17.93h-2.35v-15.67Z"/>
      <path class="cls-5" d="M197.69,455.16c.61-1.63,1.35-4.58,1.66-6.59l2.7-.28c-.63,2.34-1.85,5.41-2.62,6.7l-1.74.17Z"/>
      <path class="cls-5" d="M211.45,450.06c.52.06,1.13,0,1.96-.08,1.41-.19,2.73-.77,3.75-1.74,1.19-1.08,2.04-2.65,2.37-4.77h-.08c-.99,1.21-2.43,1.93-4.22,1.93-3.23,0-5.3-2.43-5.3-5.49,0-3.39,2.46-6.37,6.12-6.37s5.93,2.98,5.93,7.56c0,3.94-1.32,6.7-3.09,8.41-1.38,1.35-3.28,2.18-5.21,2.4-.88.14-1.66.17-2.23.14v-1.99ZM212.33,439.74c0,2.23,1.35,3.81,3.45,3.81,1.63,0,2.9-.8,3.53-1.88.14-.22.22-.5.22-.88,0-3.06-1.13-5.41-3.67-5.41-2.07,0-3.53,1.82-3.53,4.36Z"/>
      <path class="cls-5" d="M225.6,450.06c.52.06,1.13,0,1.96-.08,1.41-.19,2.73-.77,3.75-1.74,1.19-1.08,2.04-2.65,2.37-4.77h-.08c-.99,1.21-2.43,1.93-4.22,1.93-3.23,0-5.3-2.43-5.3-5.49,0-3.39,2.46-6.37,6.12-6.37s5.93,2.98,5.93,7.56c0,3.94-1.32,6.7-3.09,8.41-1.38,1.35-3.28,2.18-5.21,2.4-.88.14-1.66.17-2.23.14v-1.99ZM226.48,439.74c0,2.23,1.35,3.81,3.45,3.81,1.63,0,2.9-.8,3.53-1.88.14-.22.22-.5.22-.88,0-3.06-1.13-5.41-3.67-5.41-2.07,0-3.53,1.82-3.53,4.36Z"/>
      <path class="cls-5" d="M237.54,455.16c.61-1.63,1.35-4.58,1.66-6.59l2.7-.28c-.63,2.34-1.85,5.41-2.62,6.7l-1.74.17Z"/>
      <path class="cls-5" d="M260.13,435.54c-.5-.03-1.13,0-1.82.11-3.81.63-5.82,3.42-6.23,6.37h.08c.85-1.13,2.34-2.07,4.33-2.07,3.17,0,5.41,2.29,5.41,5.79,0,3.28-2.23,6.32-5.96,6.32s-6.35-2.98-6.35-7.64c0-3.53,1.27-6.32,3.03-8.08,1.49-1.46,3.48-2.37,5.74-2.65.72-.11,1.32-.14,1.77-.14v1.99ZM259.45,445.89c0-2.57-1.46-4.11-3.7-4.11-1.46,0-2.81.91-3.48,2.21-.17.28-.28.63-.28,1.08.06,2.95,1.41,5.13,3.95,5.13,2.1,0,3.5-1.74,3.5-4.3Z"/>
    </g>
    <g>
      <path class="cls-5" d="M60.36,401.68h-7.23v6.7h8.06v2.01h-10.46v-18.59h10.04v2.01h-7.64v5.88h7.23v1.99Z"/>
      <path class="cls-5" d="M63.89,407.91c.72.47,1.99.97,3.2.97,1.77,0,2.59-.88,2.59-1.99,0-1.16-.69-1.79-2.48-2.46-2.4-.85-3.53-2.18-3.53-3.78,0-2.15,1.74-3.92,4.61-3.92,1.35,0,2.54.39,3.28.83l-.61,1.77c-.52-.33-1.49-.77-2.73-.77-1.43,0-2.23.83-2.23,1.82,0,1.1.8,1.6,2.54,2.26,2.32.88,3.5,2.04,3.5,4.03,0,2.34-1.82,4-4.99,4-1.46,0-2.81-.36-3.75-.91l.61-1.85Z"/>
      <path class="cls-5" d="M82.54,410.39l-.19-1.68h-.08c-.74,1.05-2.18,1.99-4.08,1.99-2.7,0-4.08-1.9-4.08-3.83,0-3.23,2.87-4.99,8.03-4.97v-.28c0-1.1-.3-3.09-3.03-3.09-1.24,0-2.54.39-3.48.99l-.55-1.6c1.1-.72,2.7-1.19,4.39-1.19,4.08,0,5.08,2.79,5.08,5.46v4.99c0,1.16.05,2.29.22,3.2h-2.21ZM82.18,403.58c-2.65-.06-5.66.41-5.66,3.01,0,1.57,1.05,2.32,2.29,2.32,1.74,0,2.84-1.1,3.23-2.23.08-.25.14-.52.14-.77v-2.32Z"/>
      <path class="cls-5" d="M147.46,410.39l.72-5.41h-2.26v-1.63h2.51l.52-4h-2.37v-1.63h2.62l.72-5.27h1.6l-.69,5.27h2.87l.72-5.27h1.63l-.69,5.27h2.26v1.63h-2.51l-.5,4h2.37v1.63h-2.62l-.72,5.41h-1.66l.72-5.41h-2.87l-.72,5.41h-1.66ZM152.95,403.36l.52-4h-2.87l-.52,4h2.87Z"/>
      <path class="cls-5" d="M160.7,391.8h10.01v2.01h-7.61v6.18h7.04v1.99h-7.04v8.41h-2.4v-18.59Z"/>
      <path class="cls-5" d="M174.14,392.05c1.05-.22,2.7-.39,4.39-.39,2.4,0,3.95.41,5.1,1.35.97.72,1.54,1.82,1.54,3.28,0,1.79-1.19,3.37-3.15,4.08v.05c1.77.44,3.83,1.9,3.83,4.66,0,1.6-.63,2.81-1.57,3.72-1.3,1.19-3.39,1.74-6.43,1.74-1.66,0-2.92-.11-3.72-.22v-18.29ZM176.54,399.66h2.18c2.54,0,4.03-1.32,4.03-3.12,0-2.18-1.66-3.03-4.08-3.03-1.1,0-1.74.08-2.12.17v5.99ZM176.54,408.57c.47.08,1.16.11,2.01.11,2.48,0,4.77-.91,4.77-3.61,0-2.54-2.18-3.59-4.8-3.59h-1.99v7.09Z"/>
      <path class="cls-5" d="M198.46,394.17c-.5-.03-1.13,0-1.82.11-3.81.63-5.82,3.42-6.23,6.37h.08c.86-1.13,2.35-2.07,4.33-2.07,3.17,0,5.41,2.29,5.41,5.79,0,3.28-2.23,6.32-5.96,6.32s-6.35-2.98-6.35-7.64c0-3.53,1.27-6.32,3.03-8.08,1.49-1.46,3.48-2.37,5.74-2.65.72-.11,1.32-.14,1.77-.14v1.99ZM197.77,404.52c0-2.57-1.46-4.11-3.7-4.11-1.46,0-2.81.91-3.48,2.21-.17.28-.28.63-.28,1.08.05,2.95,1.41,5.13,3.94,5.13,2.1,0,3.5-1.74,3.5-4.3Z"/>
      <path class="cls-5" d="M202.96,407.61c.69.44,2.29,1.13,3.97,1.13,3.12,0,4.08-1.99,4.06-3.48-.03-2.51-2.29-3.59-4.63-3.59h-1.35v-1.82h1.35c1.77,0,4-.91,4-3.03,0-1.43-.91-2.7-3.15-2.7-1.43,0-2.81.63-3.59,1.19l-.63-1.77c.94-.69,2.76-1.38,4.69-1.38,3.53,0,5.13,2.1,5.13,4.28,0,1.85-1.1,3.42-3.31,4.22v.06c2.21.44,4,2.1,4,4.61,0,2.87-2.23,5.38-6.54,5.38-2.01,0-3.78-.63-4.66-1.21l.66-1.88Z"/>
      <path class="cls-5" d="M228.45,401.23c0,6.1-2.26,9.46-6.23,9.46-3.5,0-5.88-3.28-5.93-9.21,0-6.01,2.59-9.33,6.23-9.33s5.93,3.37,5.93,9.08ZM218.71,401.51c0,4.66,1.43,7.31,3.64,7.31,2.48,0,3.67-2.9,3.67-7.48s-1.13-7.31-3.64-7.31c-2.12,0-3.67,2.59-3.67,7.48Z"/>
      <path class="cls-5" d="M240.91,394.17c-.5-.03-1.13,0-1.82.11-3.81.63-5.82,3.42-6.23,6.37h.08c.85-1.13,2.34-2.07,4.33-2.07,3.17,0,5.41,2.29,5.41,5.79,0,3.28-2.23,6.32-5.96,6.32s-6.35-2.98-6.35-7.64c0-3.53,1.27-6.32,3.03-8.08,1.49-1.46,3.48-2.37,5.74-2.65.72-.11,1.32-.14,1.77-.14v1.99ZM240.22,404.52c0-2.57-1.46-4.11-3.7-4.11-1.46,0-2.81.91-3.48,2.21-.17.28-.28.63-.28,1.08.06,2.95,1.41,5.13,3.95,5.13,2.1,0,3.5-1.74,3.5-4.3Z"/>
    </g>
    <g>
      <path class="cls-5" d="M54.25,362.59l-2.12,6.43h-2.73l6.95-20.45h3.19l6.98,20.45h-2.82l-2.18-6.43h-7.25ZM60.96,360.52l-2-5.88c-.45-1.33-.76-2.55-1.06-3.73h-.06c-.3,1.21-.64,2.46-1.03,3.7l-2,5.92h6.16Z"/>
      <path class="cls-5" d="M69.51,348.84c1.33-.27,3.25-.42,5.07-.42,2.82,0,4.64.52,5.92,1.67,1.03.91,1.61,2.31,1.61,3.88,0,2.7-1.7,4.49-3.85,5.22v.09c1.58.55,2.52,2,3,4.13.67,2.85,1.15,4.82,1.58,5.61h-2.73c-.33-.58-.79-2.34-1.36-4.88-.61-2.82-1.7-3.88-4.1-3.97h-2.49v8.86h-2.64v-20.17ZM72.15,358.16h2.7c2.82,0,4.61-1.55,4.61-3.88,0-2.64-1.91-3.79-4.7-3.82-1.27,0-2.18.12-2.61.24v7.46Z"/>
      <path class="cls-5" d="M89.29,362.59l-2.12,6.43h-2.73l6.95-20.45h3.19l6.98,20.45h-2.82l-2.18-6.43h-7.25ZM96,360.52l-2-5.88c-.46-1.33-.76-2.55-1.06-3.73h-.06c-.3,1.21-.64,2.46-1.03,3.7l-2,5.92h6.16Z"/>
      <path class="cls-5" d="M104.56,369.02v-20.45h2.88l6.55,10.34c1.52,2.4,2.7,4.55,3.67,6.64l.06-.03c-.24-2.73-.3-5.22-.3-8.4v-8.55h2.49v20.45h-2.67l-6.49-10.37c-1.43-2.27-2.79-4.61-3.82-6.83l-.09.03c.15,2.58.21,5.04.21,8.43v8.74h-2.49Z"/>
      <path class="cls-5" d="M138.81,368.35c-.97.49-2.91.97-5.4.97-5.76,0-10.1-3.64-10.1-10.34s4.34-10.74,10.68-10.74c2.55,0,4.16.55,4.85.91l-.64,2.15c-1-.49-2.43-.85-4.13-.85-4.79,0-7.98,3.06-7.98,8.43,0,5.01,2.88,8.22,7.86,8.22,1.61,0,3.25-.33,4.31-.85l.55,2.09Z"/>
      <path class="cls-5" d="M144.76,348.57v20.45h-2.64v-20.45h2.64Z"/>
      <path class="cls-5" d="M166.84,358.58c0,7.04-4.28,10.77-9.5,10.77s-9.19-4.19-9.19-10.37c0-6.49,4.03-10.74,9.5-10.74s9.19,4.28,9.19,10.34ZM150.98,358.92c0,4.37,2.37,8.28,6.52,8.28s6.55-3.85,6.55-8.49c0-4.06-2.12-8.31-6.52-8.31s-6.55,4.03-6.55,8.52Z"/>
      <path class="cls-5" d="M170.27,369.02v-20.45h2.88l6.55,10.34c1.52,2.4,2.7,4.55,3.67,6.64l.06-.03c-.24-2.73-.3-5.22-.3-8.4v-8.55h2.49v20.45h-2.67l-6.49-10.37c-1.43-2.27-2.79-4.61-3.82-6.83l-.09.03c.15,2.58.21,5.04.21,8.43v8.74h-2.49Z"/>
      <path class="cls-5" d="M200.82,359.43h-7.95v7.37h8.86v2.21h-11.5v-20.45h11.04v2.21h-8.4v6.46h7.95v2.18Z"/>
      <path class="cls-5" d="M225.88,368.35c-.97.49-2.91.97-5.4.97-5.76,0-10.1-3.64-10.1-10.34s4.34-10.74,10.68-10.74c2.55,0,4.16.55,4.85.91l-.64,2.15c-1-.49-2.43-.85-4.13-.85-4.79,0-7.98,3.06-7.98,8.43,0,5.01,2.88,8.22,7.86,8.22,1.61,0,3.25-.33,4.31-.85l.55,2.09Z"/>
      <path class="cls-5" d="M229.19,348.84c1.15-.24,2.97-.42,4.82-.42,2.64,0,4.34.46,5.61,1.49,1.06.79,1.7,2,1.7,3.61,0,1.97-1.3,3.7-3.46,4.49v.06c1.94.49,4.22,2.09,4.22,5.13,0,1.76-.7,3.09-1.73,4.1-1.43,1.3-3.73,1.91-7.07,1.91-1.82,0-3.22-.12-4.1-.24v-20.11ZM231.83,357.22h2.4c2.79,0,4.43-1.46,4.43-3.43,0-2.4-1.82-3.34-4.49-3.34-1.21,0-1.91.09-2.34.18v6.58ZM231.83,367.02c.52.09,1.27.12,2.21.12,2.73,0,5.25-1,5.25-3.97,0-2.79-2.4-3.94-5.28-3.94h-2.18v7.8Z"/>
      <path class="cls-5" d="M245.64,369.02v-20.45h2.88l6.55,10.34c1.52,2.4,2.7,4.55,3.67,6.64l.06-.03c-.24-2.73-.3-5.22-.3-8.4v-8.55h2.49v20.45h-2.67l-6.49-10.37c-1.43-2.27-2.79-4.61-3.82-6.83l-.09.03c.15,2.58.21,5.04.21,8.43v8.74h-2.49Z"/>
    </g>
    <rect class="cls-1" x="48.64" y="51.82" width="275.82" height="275.82"/>
  </g>
</svg>